<svg width="677" height="203" viewBox="0 0 677 203" fill="none" xmlns="http://www.w3.org/2000/svg">
<mask id="mask0_1158_52" style="mask-type:alpha" maskUnits="userSpaceOnUse" x="0" y="0" width="677" height="203">
<rect width="677" height="203" fill="url(#paint0_linear_1158_52)"/>
</mask>
<g mask="url(#mask0_1158_52)">
<path d="M58.608 41.1135L39.2694 8.61371L61.1687 -4.41716L64.5397 1.24808L49.5117 10.1903L54.1197 17.9344L68.021 9.66259L71.392 15.3278L57.4908 23.5996L62.1082 31.3596L77.1997 22.3796L80.5707 28.0448L58.608 41.1135ZM97.4911 17.9766L85.9701 24.832L66.6316 -7.6678L78.2477 -14.5798C81.5167 -16.525 84.718 -17.5489 87.8515 -17.6514C90.9787 -17.7646 93.8978 -16.9875 96.6089 -15.3202C99.3306 -13.6593 101.696 -11.1414 103.704 -7.76658C105.718 -4.38119 106.809 -1.09102 106.977 2.10394C107.155 5.2926 106.441 8.24577 104.835 10.9634C103.24 13.6748 100.792 16.0125 97.4911 17.9766ZM89.3382 14.8559L93.7022 12.2591C95.7334 11.0505 97.2279 9.67413 98.1858 8.13007C99.1479 6.56914 99.5248 4.81922 99.3166 2.88032C99.1126 0.924544 98.2898 -1.26468 96.8482 -3.68735C95.4192 -6.08886 93.8971 -7.84045 92.2818 -8.9421C90.677 -10.0501 88.9677 -10.5514 87.1537 -10.4461C85.3398 -10.3409 83.4172 -9.6839 81.3859 -8.47524L77.0061 -5.86907L89.3382 14.8559ZM118.482 5.4863L99.1432 -27.0135L106.015 -31.1021L113.994 -17.6928L127.942 -25.9929L119.963 -39.4022L126.819 -43.4815L146.157 -10.9817L139.302 -6.90248L131.313 -20.3277L117.365 -12.0276L125.353 1.39763L118.482 5.4863ZM162.165 -20.507L142.827 -53.0068L164.726 -66.0376L168.097 -60.3724L153.069 -51.4302L157.677 -43.6861L171.578 -51.9579L174.949 -46.2926L161.048 -38.0209L165.666 -30.2609L180.757 -39.2409L184.128 -33.5756L162.165 -20.507ZM201.048 -43.6439L189.527 -36.7885L170.189 -69.2883L181.805 -76.2003C185.074 -78.1455 188.275 -79.1694 191.409 -79.2719C194.536 -79.385 197.455 -78.608 200.166 -76.9407C202.888 -75.2797 205.253 -72.7619 207.261 -69.3871C209.275 -66.0017 210.366 -62.7115 210.534 -59.5165C210.713 -56.3279 209.999 -53.3747 208.393 -50.657C206.797 -47.9457 204.349 -45.608 201.048 -43.6439ZM192.895 -46.7646L197.259 -49.3613C199.291 -50.57 200.785 -51.9463 201.743 -53.4904C202.705 -55.0513 203.082 -56.8012 202.874 -58.7401C202.67 -60.6959 201.847 -62.8851 200.405 -65.3078C198.977 -67.7093 197.454 -69.4609 195.839 -70.5626C194.234 -71.6705 192.525 -72.1719 190.711 -72.0666C188.897 -71.9613 186.974 -71.3044 184.943 -70.0957L180.563 -67.4895L192.895 -46.7646ZM222.039 -56.1342L202.701 -88.6339L209.572 -92.7226L217.551 -79.3133L231.5 -87.6134L223.521 -101.023L230.376 -105.102L249.715 -72.6022L242.859 -68.5229L234.871 -81.9481L220.922 -73.648L228.91 -60.2228L222.039 -56.1342ZM265.723 -82.1275L246.384 -114.627L268.283 -127.658L271.654 -121.993L256.626 -113.051L261.234 -105.307L275.136 -113.578L278.507 -107.913L264.605 -99.6413L269.223 -91.8814L284.314 -100.861L287.685 -95.1961L265.723 -82.1275ZM304.606 -105.264L293.085 -98.409L273.746 -130.909L285.362 -137.821C288.631 -139.766 291.833 -140.79 294.966 -140.892C298.093 -141.006 301.012 -140.228 303.723 -138.561C306.445 -136.9 308.81 -134.382 310.818 -131.008C312.833 -127.622 313.924 -124.332 314.092 -121.137C314.27 -117.948 313.556 -114.995 311.95 -112.278C310.354 -109.566 307.906 -107.228 304.606 -105.264ZM296.453 -108.385L300.817 -110.982C302.848 -112.19 304.343 -113.567 305.3 -115.111C306.262 -116.672 306.639 -118.422 306.431 -120.361C306.227 -122.316 305.404 -124.506 303.963 -126.928C302.534 -129.33 301.012 -131.081 299.396 -132.183C297.792 -133.291 296.082 -133.792 294.268 -133.687C292.454 -133.582 290.532 -132.925 288.5 -131.716L284.121 -129.11L296.453 -108.385ZM325.596 -117.755L306.258 -150.254L313.129 -154.343L321.108 -140.934L335.057 -149.234L327.078 -162.643L333.933 -166.722L353.272 -134.223L346.417 -130.143L338.428 -143.569L324.479 -135.269L332.468 -121.843L325.596 -117.755ZM369.28 -143.748L349.941 -176.248L371.84 -189.279L375.212 -183.613L360.184 -174.671L364.792 -166.927L378.693 -175.199L382.064 -169.534L368.163 -161.262L372.78 -153.502L387.872 -162.482L391.243 -156.817L369.28 -143.748ZM408.163 -166.885L396.642 -160.029L377.303 -192.529L388.92 -199.441C392.189 -201.386 395.39 -202.41 398.523 -202.513C401.65 -202.626 404.57 -201.849 407.281 -200.182C410.002 -198.521 412.367 -196.003 414.375 -192.628C416.39 -189.243 417.481 -185.952 417.649 -182.757C417.827 -179.569 417.113 -176.616 415.507 -173.898C413.912 -171.187 411.464 -168.849 408.163 -166.885ZM400.01 -170.006L404.374 -172.602C406.405 -173.811 407.9 -175.187 408.858 -176.731C409.82 -178.292 410.197 -180.042 409.988 -181.981C409.784 -183.937 408.962 -186.126 407.52 -188.549C406.091 -190.95 404.569 -192.702 402.954 -193.804C401.349 -194.911 399.64 -195.413 397.826 -195.308C396.012 -195.202 394.089 -194.545 392.058 -193.337L387.678 -190.73L400.01 -170.006ZM429.154 -179.375L409.815 -211.875L416.686 -215.964L424.665 -202.554L438.614 -210.854L430.635 -224.264L437.491 -228.343L456.829 -195.843L449.974 -191.764L441.985 -205.189L428.036 -196.889L436.025 -183.464L429.154 -179.375ZM472.837 -205.368L453.499 -237.868L475.398 -250.899L478.769 -245.234L463.741 -236.292L468.349 -228.548L482.25 -236.819L485.621 -231.154L471.72 -222.882L476.337 -215.122L491.429 -224.102L494.8 -218.437L472.837 -205.368ZM511.72 -228.505L500.199 -221.65L480.861 -254.15L492.477 -261.062C495.746 -263.007 498.947 -264.031 502.081 -264.133C505.208 -264.246 508.127 -263.469 510.838 -261.802C513.56 -260.141 515.925 -257.623 517.933 -254.248C519.947 -250.863 521.038 -247.573 521.206 -244.378C521.384 -241.189 520.671 -238.236 519.065 -235.518C517.469 -232.807 515.021 -230.469 511.72 -228.505ZM503.567 -231.626L507.931 -234.223C509.963 -235.431 511.457 -236.808 512.415 -238.352C513.377 -239.913 513.754 -241.663 513.546 -243.602C513.342 -245.557 512.519 -247.747 511.077 -250.169C509.648 -252.571 508.126 -254.322 506.511 -255.424C504.906 -256.532 503.197 -257.033 501.383 -256.928C499.569 -256.823 497.646 -256.166 495.615 -254.957L491.235 -252.351L503.567 -231.626ZM532.711 -240.996L513.372 -273.495L520.244 -277.584L528.223 -264.175L542.172 -272.475L534.192 -285.884L541.048 -289.963L560.386 -257.464L553.531 -253.384L545.543 -266.81L531.594 -258.509L539.582 -245.084L532.711 -240.996ZM576.394 -266.989L557.056 -299.489L578.955 -312.519L582.326 -306.854L567.298 -297.912L571.906 -290.168L585.807 -298.44L589.178 -292.775L575.277 -284.503L579.895 -276.743L594.986 -285.723L598.357 -280.058L576.394 -266.989ZM615.277 -290.126L603.757 -283.27L584.418 -315.77L596.034 -322.682C599.303 -324.627 602.504 -325.651 605.638 -325.754C608.765 -325.867 611.684 -325.09 614.395 -323.423C617.117 -321.762 619.482 -319.244 621.49 -315.869C623.504 -312.484 624.596 -309.193 624.763 -305.998C624.942 -302.81 624.228 -299.857 622.622 -297.139C621.026 -294.428 618.578 -292.09 615.277 -290.126ZM607.125 -293.246L611.489 -295.843C613.52 -297.052 615.014 -298.428 615.972 -299.972C616.934 -301.533 617.311 -303.283 617.103 -305.222C616.899 -307.178 616.076 -309.367 614.635 -311.79C613.206 -314.191 611.683 -315.943 610.068 -317.044C608.463 -318.152 606.754 -318.654 604.94 -318.548C603.126 -318.443 601.204 -317.786 599.172 -316.578L594.792 -313.971L607.125 -293.246ZM636.268 -302.616L616.93 -335.116L623.801 -339.204L631.78 -325.795L645.729 -334.095L637.75 -347.505L644.605 -351.584L663.944 -319.084L657.088 -315.005L649.1 -328.43L635.151 -320.13L643.139 -306.705L636.268 -302.616ZM679.952 -328.609L660.613 -361.109L682.512 -374.14L685.883 -368.475L670.855 -359.533L675.463 -351.788L689.365 -360.06L692.736 -354.395L678.834 -346.123L683.452 -338.363L698.543 -347.343L701.914 -341.678L679.952 -328.609ZM718.835 -351.746L707.314 -344.891L687.975 -377.391L699.591 -384.303C702.86 -386.248 706.062 -387.272 709.195 -387.374C712.322 -387.487 715.241 -386.71 717.953 -385.043C720.674 -383.382 723.039 -380.864 725.047 -377.489C727.062 -374.104 728.153 -370.814 728.321 -367.619C728.499 -364.43 727.785 -361.477 726.179 -358.759C724.584 -356.048 722.135 -353.71 718.835 -351.746ZM710.682 -354.867L715.046 -357.464C717.077 -358.672 718.572 -360.049 719.529 -361.593C720.492 -363.154 720.868 -364.904 720.66 -366.842C720.456 -368.798 719.633 -370.987 718.192 -373.41C716.763 -375.812 715.241 -377.563 713.625 -378.665C712.021 -379.773 710.311 -380.274 708.497 -380.169C706.683 -380.064 704.761 -379.407 702.73 -378.198L698.35 -375.592L710.682 -354.867ZM739.825 -364.237L720.487 -396.736L727.358 -400.825L735.337 -387.416L749.286 -395.716L741.307 -409.125L748.162 -413.204L767.501 -380.705L760.646 -376.625L752.657 -390.05L738.708 -381.75L746.697 -368.325L739.825 -364.237ZM783.509 -390.23L764.17 -422.73L786.07 -435.76L789.441 -430.095L774.413 -421.153L779.021 -413.409L792.922 -421.681L796.293 -416.015L782.392 -407.744L787.009 -399.984L802.101 -408.964L805.472 -403.298L783.509 -390.23ZM822.392 -413.367L810.871 -406.511L791.532 -439.011L803.149 -445.923C806.418 -447.868 809.619 -448.892 812.752 -448.995C815.88 -449.108 818.799 -448.331 821.51 -446.664C824.232 -445.003 826.596 -442.485 828.605 -439.11C830.619 -435.724 831.71 -432.434 831.878 -429.239C832.056 -426.051 831.342 -423.098 829.736 -420.38C828.141 -417.668 825.693 -415.331 822.392 -413.367ZM814.239 -416.487L818.603 -419.084C820.634 -420.293 822.129 -421.669 823.087 -423.213C824.049 -424.774 824.426 -426.524 824.217 -428.463C824.014 -430.419 823.191 -432.608 821.749 -435.031C820.32 -437.432 818.798 -439.184 817.183 -440.285C815.578 -441.393 813.869 -441.895 812.055 -441.789C810.241 -441.684 808.318 -441.027 806.287 -439.819L801.907 -437.212L814.239 -416.487ZM843.383 -425.857L824.044 -458.357L830.915 -462.445L838.894 -449.036L852.843 -457.336L844.864 -470.746L851.72 -474.825L871.058 -442.325L864.203 -438.246L856.214 -451.671L842.266 -443.371L850.254 -429.946L843.383 -425.857ZM887.066 -451.85L867.728 -484.35L889.627 -497.381L892.998 -491.716L877.97 -482.773L882.578 -475.029L896.479 -483.301L899.85 -477.636L885.949 -469.364L890.566 -461.604L905.658 -470.584L909.029 -464.919L887.066 -451.85ZM925.949 -474.987L914.428 -468.132L895.09 -500.632L906.706 -507.544C909.975 -509.489 913.176 -510.513 916.31 -510.615C919.437 -510.728 922.356 -509.951 925.067 -508.284C927.789 -506.623 930.154 -504.105 932.162 -500.73C934.176 -497.345 935.267 -494.055 935.435 -490.86C935.614 -487.671 934.9 -484.718 933.294 -482C931.698 -479.289 929.25 -476.951 925.949 -474.987ZM917.796 -478.108L922.16 -480.705C924.192 -481.913 925.686 -483.29 926.644 -484.834C927.606 -486.395 927.983 -488.145 927.775 -490.083C927.571 -492.039 926.748 -494.228 925.306 -496.651C923.877 -499.053 922.355 -500.804 920.74 -501.906C919.135 -503.014 917.426 -503.515 915.612 -503.41C913.798 -503.305 911.875 -502.648 909.844 -501.439L905.464 -498.833L917.796 -478.108ZM946.94 -487.477L927.601 -519.977L934.473 -524.066L942.452 -510.657L956.401 -518.957L948.422 -532.366L955.277 -536.445L974.616 -503.945L967.76 -499.866L959.772 -513.291L945.823 -504.991L953.811 -491.566L946.94 -487.477Z" fill="#252244"/>
<path d="M90.8234 95.2537L71.4849 62.7539L93.3841 49.7231L96.7552 55.3883L81.7272 64.3305L86.3352 72.0746L100.236 63.8028L103.608 69.4681L89.7062 77.7398L94.3237 85.4998L109.415 76.5198L112.786 82.1851L90.8234 95.2537ZM129.707 72.1168L118.186 78.9722L98.847 46.4724L110.463 39.5604C113.732 37.6152 116.933 36.5913 120.067 36.4888C123.194 36.3757 126.113 37.1527 128.824 38.82C131.546 40.4809 133.911 42.9988 135.919 46.3736C137.934 49.759 139.025 53.0492 139.192 56.2442C139.371 59.4328 138.657 62.386 137.051 65.1037C135.455 67.815 133.007 70.1527 129.707 72.1168ZM121.554 68.9961L125.918 66.3994C127.949 65.1907 129.443 63.8144 130.401 62.2703C131.363 60.7094 131.74 58.9595 131.532 57.0205C131.328 55.0648 130.505 52.8755 129.064 50.4529C127.635 48.0514 126.113 46.2998 124.497 45.1981C122.893 44.0902 121.183 43.5888 119.369 43.6941C117.555 43.7994 115.633 44.4563 113.601 45.665L109.222 48.2712L121.554 68.9961ZM150.697 59.6265L131.359 27.1268L138.23 23.0381L146.209 36.4474L160.158 28.1473L152.179 14.738L159.034 10.6588L178.373 43.1585L171.517 47.2378L163.529 33.8126L149.58 42.1127L157.569 55.5379L150.697 59.6265ZM194.381 33.6332L175.042 1.13347L196.941 -11.8974L200.312 -6.23216L185.284 2.71004L189.892 10.4541L203.794 2.18235L207.165 7.84759L193.264 16.1194L197.881 23.8793L212.972 14.8993L216.343 20.5646L194.381 33.6332ZM233.264 10.4963L221.743 17.3517L202.404 -15.148L214.02 -22.0601C217.289 -24.0053 220.491 -25.0291 223.624 -25.1317C226.751 -25.2448 229.671 -24.4677 232.382 -22.8005C235.103 -21.1395 237.468 -18.6216 239.476 -15.2468C241.491 -11.8614 242.582 -8.57126 242.75 -5.3763C242.928 -2.18763 242.214 0.765528 240.608 3.48319C239.013 6.19455 236.565 8.53227 233.264 10.4963ZM225.111 7.37564L229.475 4.77891C231.506 3.57025 233.001 2.19389 233.959 0.649832C234.921 -0.911098 235.298 -2.66101 235.089 -4.59992C234.885 -6.55569 234.063 -8.74492 232.621 -11.1676C231.192 -13.5691 229.67 -15.3207 228.055 -16.4223C226.45 -17.5303 224.74 -18.0316 222.926 -17.9264C221.113 -17.8211 219.19 -17.1641 217.159 -15.9555L212.779 -13.3493L225.111 7.37564ZM254.255 -1.99394L234.916 -34.4937L241.787 -38.5824L249.766 -25.173L263.715 -33.4731L255.736 -46.8825L262.592 -50.9617L281.93 -18.4619L275.075 -14.3827L267.086 -27.8079L253.137 -19.5078L261.126 -6.08261L254.255 -1.99394ZM297.938 -27.9872L278.599 -60.487L300.499 -73.5179L303.87 -67.8526L288.842 -58.9104L293.45 -51.1663L307.351 -59.4381L310.722 -53.7729L296.821 -45.5011L301.438 -37.7411L316.53 -46.7211L319.901 -41.0559L297.938 -27.9872ZM336.821 -51.1241L325.3 -44.2687L305.962 -76.7685L317.578 -83.6805C320.847 -85.6257 324.048 -86.6496 327.181 -86.7521C330.309 -86.8653 333.228 -86.0882 335.939 -84.421C338.661 -82.76 341.026 -80.2421 343.034 -76.8673C345.048 -73.4819 346.139 -70.1917 346.307 -66.9968C346.485 -63.8081 345.771 -60.8549 344.165 -58.1373C342.57 -55.4259 340.122 -53.0882 336.821 -51.1241ZM328.668 -54.2448L333.032 -56.8416C335.063 -58.0502 336.558 -59.4266 337.516 -60.9706C338.478 -62.5316 338.855 -64.2815 338.647 -66.2204C338.443 -68.1762 337.62 -70.3654 336.178 -72.7881C334.749 -75.1896 333.227 -76.9412 331.612 -78.0428C330.007 -79.1508 328.298 -79.6521 326.484 -79.5468C324.67 -79.4416 322.747 -78.7846 320.716 -77.5759L316.336 -74.9698L328.668 -54.2448ZM357.812 -63.6144L338.473 -96.1142L345.345 -100.203L353.324 -86.7935L367.272 -95.0936L359.293 -108.503L366.149 -112.582L385.487 -80.0824L378.632 -76.0032L370.643 -89.4284L356.695 -81.1283L364.683 -67.7031L357.812 -63.6144ZM401.495 -89.6077L382.157 -122.107L404.056 -135.138L407.427 -129.473L392.399 -120.531L397.007 -112.787L410.908 -121.059L414.279 -115.393L400.378 -107.122L404.996 -99.3616L420.087 -108.342L423.458 -102.676L401.495 -89.6077ZM440.378 -112.745L428.857 -105.889L409.519 -138.389L421.135 -145.301C424.404 -147.246 427.605 -148.27 430.739 -148.373C433.866 -148.486 436.785 -147.709 439.496 -146.041C442.218 -144.38 444.583 -141.863 446.591 -138.488C448.605 -135.102 449.696 -131.812 449.864 -128.617C450.043 -125.429 449.329 -122.475 447.723 -119.758C446.127 -117.046 443.679 -114.709 440.378 -112.745ZM432.225 -115.865L436.589 -118.462C438.621 -119.671 440.115 -121.047 441.073 -122.591C442.035 -124.152 442.412 -125.902 442.204 -127.841C442 -129.797 441.177 -131.986 439.736 -134.409C438.307 -136.81 436.784 -138.562 435.169 -139.663C433.564 -140.771 431.855 -141.273 430.041 -141.167C428.227 -141.062 426.304 -140.405 424.273 -139.196L419.893 -136.59L432.225 -115.865ZM461.369 -125.235L442.031 -157.735L448.902 -161.823L456.881 -148.414L470.83 -156.714L462.851 -170.123L469.706 -174.203L489.045 -141.703L482.189 -137.624L474.201 -151.049L460.252 -142.749L468.24 -129.324L461.369 -125.235ZM505.053 -151.228L485.714 -183.728L507.613 -196.759L510.984 -191.094L495.956 -182.151L500.564 -174.407L514.466 -182.679L517.837 -177.014L503.935 -168.742L508.553 -160.982L523.644 -169.962L527.015 -164.297L505.053 -151.228ZM543.936 -174.365L532.415 -167.51L513.076 -200.009L524.692 -206.921C527.961 -208.867 531.163 -209.891 534.296 -209.993C537.423 -210.106 540.342 -209.329 543.053 -207.662C545.775 -206.001 548.14 -203.483 550.148 -200.108C552.163 -196.723 553.254 -193.433 553.422 -190.238C553.6 -187.049 552.886 -184.096 551.28 -181.378C549.684 -178.667 547.236 -176.329 543.936 -174.365ZM535.783 -177.486L540.147 -180.082C542.178 -181.291 543.673 -182.668 544.63 -184.212C545.592 -185.772 545.969 -187.522 545.761 -189.461C545.557 -191.417 544.734 -193.606 543.293 -196.029C541.864 -198.431 540.342 -200.182 538.726 -201.284C537.122 -202.392 535.412 -202.893 533.598 -202.788C531.784 -202.683 529.862 -202.026 527.831 -200.817L523.451 -198.211L535.783 -177.486ZM564.926 -186.855L545.588 -219.355L552.459 -223.444L560.438 -210.034L574.387 -218.335L566.408 -231.744L573.263 -235.823L592.602 -203.323L585.747 -199.244L577.758 -212.669L563.809 -204.369L571.798 -190.944L564.926 -186.855ZM608.61 -212.849L589.271 -245.348L611.171 -258.379L614.542 -252.714L599.514 -243.772L604.122 -236.028L618.023 -244.3L621.394 -238.634L607.493 -230.363L612.11 -222.603L627.202 -231.583L630.573 -225.917L608.61 -212.849ZM647.493 -235.986L635.972 -229.13L616.633 -261.63L628.25 -268.542C631.519 -270.487 634.72 -271.511 637.853 -271.614C640.981 -271.727 643.9 -270.95 646.611 -269.282C649.332 -267.621 651.697 -265.104 653.705 -261.729C655.72 -258.343 656.811 -255.053 656.979 -251.858C657.157 -248.67 656.443 -245.716 654.837 -242.999C653.242 -240.287 650.794 -237.95 647.493 -235.986ZM639.34 -239.106L643.704 -241.703C645.735 -242.912 647.23 -244.288 648.188 -245.832C649.15 -247.393 649.527 -249.143 649.318 -251.082C649.114 -253.038 648.292 -255.227 646.85 -257.649C645.421 -260.051 643.899 -261.803 642.284 -262.904C640.679 -264.012 638.97 -264.513 637.156 -264.408C635.342 -264.303 633.419 -263.646 631.388 -262.437L627.008 -259.831L639.34 -239.106ZM668.484 -248.476L649.145 -280.976L656.016 -285.064L663.995 -271.655L677.944 -279.955L669.965 -293.364L676.821 -297.444L696.159 -264.944L689.304 -260.865L681.315 -274.29L667.366 -265.99L675.355 -252.564L668.484 -248.476ZM712.167 -274.469L692.829 -306.969L714.728 -320L718.099 -314.334L703.071 -305.392L707.679 -297.648L721.58 -305.92L724.951 -300.255L711.05 -291.983L715.667 -284.223L730.759 -293.203L734.13 -287.538L712.167 -274.469ZM751.05 -297.606L739.529 -290.751L720.191 -323.25L731.807 -330.162C735.076 -332.108 738.277 -333.131 741.411 -333.234C744.538 -333.347 747.457 -332.57 750.168 -330.903C752.89 -329.242 755.255 -326.724 757.263 -323.349C759.277 -319.964 760.368 -316.674 760.536 -313.479C760.714 -310.29 760.001 -307.337 758.395 -304.619C756.799 -301.908 754.351 -299.57 751.05 -297.606ZM742.897 -300.727L747.261 -303.323C749.293 -304.532 750.787 -305.908 751.745 -307.453C752.707 -309.013 753.084 -310.763 752.876 -312.702C752.672 -314.658 751.849 -316.847 750.407 -319.27C748.978 -321.671 747.456 -323.423 745.841 -324.525C744.236 -325.633 742.527 -326.134 740.713 -326.029C738.899 -325.923 736.976 -325.266 734.945 -324.058L730.565 -321.452L742.897 -300.727ZM772.041 -310.096L752.702 -342.596L759.574 -346.685L767.553 -333.275L781.502 -341.575L773.523 -354.985L780.378 -359.064L799.717 -326.564L792.861 -322.485L784.873 -335.91L770.924 -327.61L778.912 -314.185L772.041 -310.096ZM815.724 -336.09L796.386 -368.589L818.285 -381.62L821.656 -375.955L806.628 -367.013L811.236 -359.269L825.137 -367.54L828.508 -361.875L814.607 -353.603L819.225 -345.843L834.316 -354.823L837.687 -349.158L815.724 -336.09ZM854.607 -359.226L843.087 -352.371L823.748 -384.871L835.364 -391.783C838.633 -393.728 841.834 -394.752 844.968 -394.854C848.095 -394.968 851.014 -394.191 853.725 -392.523C856.447 -390.862 858.812 -388.344 860.82 -384.97C862.834 -381.584 863.926 -378.294 864.093 -375.099C864.272 -371.91 863.558 -368.957 861.952 -366.24C860.356 -363.528 857.908 -361.191 854.607 -359.226ZM846.455 -362.347L850.819 -364.944C852.85 -366.153 854.344 -367.529 855.302 -369.073C856.264 -370.634 856.641 -372.384 856.433 -374.323C856.229 -376.278 855.406 -378.468 853.965 -380.89C852.536 -383.292 851.013 -385.043 849.398 -386.145C847.793 -387.253 846.084 -387.754 844.27 -387.649C842.456 -387.544 840.534 -386.887 838.502 -385.678L834.122 -383.072L846.455 -362.347ZM875.598 -371.717L856.26 -404.216L863.131 -408.305L871.11 -394.896L885.059 -403.196L877.08 -416.605L883.935 -420.685L903.274 -388.185L896.418 -384.106L888.43 -397.531L874.481 -389.231L882.469 -375.805L875.598 -371.717ZM919.282 -397.71L899.943 -430.21L921.842 -443.241L925.213 -437.575L910.185 -428.633L914.793 -420.889L928.695 -429.161L932.066 -423.496L918.164 -415.224L922.782 -407.464L937.873 -416.444L941.244 -410.779L919.282 -397.71ZM958.165 -420.847L946.644 -413.992L927.305 -446.491L938.921 -453.403C942.19 -455.349 945.392 -456.372 948.525 -456.475C951.652 -456.588 954.571 -455.811 957.283 -454.144C960.004 -452.483 962.369 -449.965 964.377 -446.59C966.392 -443.205 967.483 -439.915 967.651 -436.72C967.829 -433.531 967.115 -430.578 965.509 -427.86C963.914 -425.149 961.465 -422.811 958.165 -420.847ZM950.012 -423.968L954.376 -426.564C956.407 -427.773 957.902 -429.149 958.859 -430.693C959.822 -432.254 960.198 -434.004 959.99 -435.943C959.786 -437.899 958.963 -440.088 957.522 -442.511C956.093 -444.912 954.571 -446.664 952.955 -447.766C951.351 -448.874 949.641 -449.375 947.827 -449.27C946.013 -449.164 944.091 -448.507 942.06 -447.299L937.68 -444.693L950.012 -423.968ZM979.155 -433.337L959.817 -465.837L966.688 -469.926L974.667 -456.516L988.616 -464.816L980.637 -478.226L987.492 -482.305L1006.83 -449.805L999.976 -445.726L991.987 -459.151L978.038 -450.851L986.027 -437.426L979.155 -433.337Z" fill="#252244"/>
<path d="M123.039 149.394L103.7 116.894L125.6 103.863L128.971 109.529L113.943 118.471L118.551 126.215L132.452 117.943L135.823 123.608L121.922 131.88L126.539 139.64L141.631 130.66L145.002 136.325L123.039 149.394ZM161.922 126.257L150.401 133.112L131.062 100.613L142.679 93.7006C145.948 91.7554 149.149 90.7316 152.282 90.629C155.41 90.5159 158.329 91.293 161.04 92.9602C163.762 94.6212 166.126 97.1391 168.135 100.514C170.149 103.899 171.24 107.189 171.408 110.384C171.586 113.573 170.872 116.526 169.266 119.244C167.671 121.955 165.223 124.293 161.922 126.257ZM153.769 123.136L158.133 120.54C160.164 119.331 161.659 117.955 162.617 116.411C163.579 114.85 163.956 113.1 163.747 111.161C163.544 109.205 162.721 107.016 161.279 104.593C159.85 102.192 158.328 100.44 156.713 99.3384C155.108 98.2304 153.399 97.7291 151.585 97.8343C149.771 97.9396 147.848 98.5966 145.817 99.8052L141.437 102.411L153.769 123.136ZM182.913 113.767L163.574 81.267L170.445 77.1783L178.424 90.5876L192.373 82.2875L184.394 68.8782L191.25 64.799L210.588 97.2987L203.733 101.378L195.744 87.9528L181.796 96.2529L189.784 109.678L182.913 113.767ZM226.596 87.7735L207.258 55.2737L229.157 42.2428L232.528 47.9081L217.5 56.8503L222.108 64.5944L236.009 56.3226L239.38 61.9878L225.479 70.2596L230.096 78.0195L245.188 69.0396L248.559 74.7048L226.596 87.7735ZM265.479 64.6366L253.958 71.4919L234.62 38.9922L246.236 32.0802C249.505 30.135 252.706 29.1111 255.84 29.0086C258.967 28.8954 261.886 29.6725 264.597 31.3397C267.319 33.0007 269.684 35.5186 271.692 38.8934C273.706 42.2788 274.797 45.569 274.965 48.7639C275.144 51.9526 274.43 54.9058 272.824 57.6234C271.228 60.3348 268.78 62.6725 265.479 64.6366ZM257.326 61.5159L261.69 58.9191C263.722 57.7105 265.216 56.3341 266.174 54.7901C267.136 53.2291 267.513 51.4792 267.305 49.5403C267.101 47.5845 266.278 45.3953 264.836 42.9726C263.407 40.5711 261.885 38.8195 260.27 37.7179C258.665 36.6099 256.956 36.1086 255.142 36.2139C253.328 36.3191 251.405 36.9761 249.374 38.1847L244.994 40.7909L257.326 61.5159ZM286.47 52.1463L267.131 19.6465L274.003 15.5579L281.982 28.9672L295.931 20.6671L287.952 7.25775L294.807 3.17852L314.146 35.6783L307.29 39.7575L299.302 26.3323L285.353 34.6324L293.341 48.0576L286.47 52.1463ZM330.153 26.153L310.815 -6.34676L332.714 -19.3776L336.085 -13.7124L321.057 -4.7702L325.665 2.97389L339.566 -5.29789L342.938 0.367354L329.036 8.63913L333.654 16.3991L348.745 7.41911L352.116 13.0843L330.153 26.153ZM369.037 3.01611L357.516 9.87148L338.177 -22.6283L349.793 -29.5403C353.062 -31.4855 356.263 -32.5094 359.397 -32.6119C362.524 -32.725 365.443 -31.948 368.154 -30.2807C370.876 -28.6198 373.241 -26.1019 375.249 -22.7271C377.264 -19.3417 378.355 -16.0515 378.522 -12.8565C378.701 -9.66787 377.987 -6.71471 376.381 -3.99705C374.785 -1.28569 372.337 1.05203 369.037 3.01611ZM360.884 -0.104599L365.248 -2.70133C367.279 -3.90999 368.773 -5.28635 369.731 -6.83041C370.693 -8.39134 371.07 -10.1413 370.862 -12.0802C370.658 -14.0359 369.835 -16.2252 368.394 -18.6478C366.965 -21.0493 365.443 -22.8009 363.827 -23.9026C362.223 -25.0105 360.513 -25.5119 358.699 -25.4066C356.885 -25.3013 354.963 -24.6444 352.931 -23.4357L348.552 -20.8295L360.884 -0.104599ZM390.027 -9.47418L370.689 -41.9739L377.56 -46.0626L385.539 -32.6533L399.488 -40.9534L391.509 -54.3627L398.364 -58.4419L417.703 -25.9422L410.847 -21.863L402.859 -35.2881L388.91 -26.988L396.899 -13.5629L390.027 -9.47418ZM433.711 -35.4675L414.372 -67.9672L436.271 -80.9981L439.642 -75.3329L424.614 -66.3907L429.223 -58.6466L443.124 -66.9184L446.495 -61.2531L432.594 -52.9813L437.211 -45.2214L452.302 -54.2014L455.673 -48.5361L433.711 -35.4675ZM472.594 -58.6044L461.073 -51.749L441.734 -84.2487L453.35 -91.1608C456.619 -93.106 459.821 -94.1298 462.954 -94.2324C466.081 -94.3455 469.001 -93.5684 471.712 -91.9012C474.433 -90.2402 476.798 -87.7223 478.806 -84.3475C480.821 -80.9621 481.912 -77.672 482.08 -74.477C482.258 -71.2883 481.544 -68.3352 479.938 -65.6175C478.343 -62.9062 475.895 -60.5684 472.594 -58.6044ZM464.441 -61.7251L468.805 -64.3218C470.836 -65.5305 472.331 -66.9068 473.289 -68.4509C474.251 -70.0118 474.628 -71.7617 474.419 -73.7006C474.215 -75.6564 473.393 -77.8456 471.951 -80.2683C470.522 -82.6698 469 -84.4214 467.385 -85.523C465.78 -86.631 464.07 -87.1323 462.256 -87.0271C460.443 -86.9218 458.52 -86.2648 456.489 -85.0562L452.109 -82.45L464.441 -61.7251ZM493.585 -71.0946L474.246 -103.594L481.117 -107.683L489.096 -94.2738L503.045 -102.574L495.066 -115.983L501.922 -120.062L521.26 -87.5627L514.405 -83.4834L506.416 -96.9086L492.467 -88.6085L500.456 -75.1833L493.585 -71.0946ZM537.268 -97.0879L517.929 -129.588L539.829 -142.619L543.2 -136.953L528.172 -128.011L532.78 -120.267L546.681 -128.539L550.052 -122.874L536.151 -114.602L540.768 -106.842L555.86 -115.822L559.231 -110.157L537.268 -97.0879ZM576.151 -120.225L564.63 -113.369L545.292 -145.869L556.908 -152.781C560.177 -154.726 563.378 -155.75 566.511 -155.853C569.639 -155.966 572.558 -155.189 575.269 -153.522C577.991 -151.861 580.356 -149.343 582.364 -145.968C584.378 -142.583 585.469 -139.292 585.637 -136.097C585.815 -132.909 585.101 -129.956 583.495 -127.238C581.9 -124.527 579.452 -122.189 576.151 -120.225ZM567.998 -123.346L572.362 -125.942C574.393 -127.151 575.888 -128.527 576.846 -130.071C577.808 -131.632 578.185 -133.382 577.977 -135.321C577.773 -137.277 576.95 -139.466 575.508 -141.889C574.079 -144.29 572.557 -146.042 570.942 -147.144C569.337 -148.251 567.628 -148.753 565.814 -148.648C564 -148.542 562.077 -147.885 560.046 -146.677L555.666 -144.07L567.998 -123.346ZM597.142 -132.715L577.803 -165.215L584.675 -169.304L592.654 -155.894L606.602 -164.194L598.623 -177.604L605.479 -181.683L624.817 -149.183L617.962 -145.104L609.974 -158.529L596.025 -150.229L604.013 -136.804L597.142 -132.715ZM640.825 -158.708L621.487 -191.208L643.386 -204.239L646.757 -198.574L631.729 -189.632L636.337 -181.888L650.238 -190.159L653.609 -184.494L639.708 -176.222L644.326 -168.462L659.417 -177.442L662.788 -171.777L640.825 -158.708ZM679.708 -181.845L668.187 -174.99L648.849 -207.49L660.465 -214.402C663.734 -216.347 666.935 -217.371 670.069 -217.473C673.196 -217.586 676.115 -216.809 678.826 -215.142C681.548 -213.481 683.913 -210.963 685.921 -207.588C687.935 -204.203 689.026 -200.913 689.194 -197.718C689.373 -194.529 688.659 -191.576 687.053 -188.858C685.457 -186.147 683.009 -183.809 679.708 -181.845ZM671.556 -184.966L675.919 -187.563C677.951 -188.771 679.445 -190.148 680.403 -191.692C681.365 -193.253 681.742 -195.003 681.534 -196.942C681.33 -198.897 680.507 -201.087 679.066 -203.509C677.637 -205.911 676.114 -207.662 674.499 -208.764C672.894 -209.872 671.185 -210.373 669.371 -210.268C667.557 -210.163 665.634 -209.506 663.603 -208.297L659.223 -205.691L671.556 -184.966ZM700.699 -194.336L681.361 -226.835L688.232 -230.924L696.211 -217.515L710.16 -225.815L702.181 -239.224L709.036 -243.303L728.375 -210.804L721.519 -206.724L713.531 -220.15L699.582 -211.849L707.57 -198.424L700.699 -194.336ZM744.383 -220.329L725.044 -252.829L746.943 -265.86L750.314 -260.194L735.286 -251.252L739.894 -243.508L753.796 -251.78L757.167 -246.115L743.265 -237.843L747.883 -230.083L762.974 -239.063L766.345 -233.398L744.383 -220.329ZM783.266 -243.466L771.745 -236.61L752.406 -269.11L764.022 -276.022C767.291 -277.967 770.493 -278.991 773.626 -279.094C776.753 -279.207 779.672 -278.43 782.383 -276.763C785.105 -275.102 787.47 -272.584 789.478 -269.209C791.493 -265.824 792.584 -262.533 792.752 -259.338C792.93 -256.15 792.216 -253.197 790.61 -250.479C789.015 -247.768 786.566 -245.43 783.266 -243.466ZM775.113 -246.586L779.477 -249.183C781.508 -250.392 783.003 -251.768 783.96 -253.312C784.922 -254.873 785.299 -256.623 785.091 -258.562C784.887 -260.518 784.064 -262.707 782.623 -265.13C781.194 -267.531 779.672 -269.283 778.056 -270.384C776.452 -271.492 774.742 -271.994 772.928 -271.888C771.114 -271.783 769.192 -271.126 767.161 -269.918L762.781 -267.311L775.113 -246.586ZM804.256 -255.956L784.918 -288.456L791.789 -292.544L799.768 -279.135L813.717 -287.435L805.738 -300.845L812.593 -304.924L831.932 -272.424L825.077 -268.345L817.088 -281.77L803.139 -273.47L811.128 -260.045L804.256 -255.956ZM847.94 -281.949L828.601 -314.449L850.501 -327.48L853.872 -321.815L838.844 -312.873L843.452 -305.128L857.353 -313.4L860.724 -307.735L846.823 -299.463L851.44 -291.703L866.532 -300.683L869.903 -295.018L847.94 -281.949ZM886.823 -305.086L875.302 -298.231L855.963 -330.731L867.58 -337.643C870.849 -339.588 874.05 -340.612 877.183 -340.714C880.311 -340.827 883.23 -340.05 885.941 -338.383C888.662 -336.722 891.027 -334.204 893.036 -330.829C895.05 -327.444 896.141 -324.154 896.309 -320.959C896.487 -317.77 895.773 -314.817 894.167 -312.099C892.572 -309.388 890.124 -307.05 886.823 -305.086ZM878.67 -308.207L883.034 -310.804C885.065 -312.012 886.56 -313.389 887.518 -314.933C888.48 -316.494 888.857 -318.244 888.648 -320.182C888.444 -322.138 887.622 -324.327 886.18 -326.75C884.751 -329.152 883.229 -330.903 881.614 -332.005C880.009 -333.113 878.3 -333.614 876.486 -333.509C874.672 -333.404 872.749 -332.747 870.718 -331.538L866.338 -328.932L878.67 -308.207ZM907.814 -317.577L888.475 -350.076L895.346 -354.165L903.325 -340.756L917.274 -349.056L909.295 -362.465L916.151 -366.544L935.489 -334.045L928.634 -329.965L920.645 -343.39L906.696 -335.09L914.685 -321.665L907.814 -317.577ZM951.497 -343.57L932.159 -376.07L954.058 -389.1L957.429 -383.435L942.401 -374.493L947.009 -366.749L960.91 -375.021L964.281 -369.355L950.38 -361.084L954.997 -353.324L970.089 -362.304L973.46 -356.638L951.497 -343.57ZM990.38 -366.707L978.859 -359.851L959.521 -392.351L971.137 -399.263C974.406 -401.208 977.607 -402.232 980.741 -402.335C983.868 -402.448 986.787 -401.671 989.498 -400.004C992.22 -398.343 994.585 -395.825 996.593 -392.45C998.607 -389.064 999.698 -385.774 999.866 -382.579C1000.04 -379.391 999.331 -376.438 997.725 -373.72C996.129 -371.008 993.681 -368.671 990.38 -366.707ZM982.227 -369.827L986.591 -372.424C988.623 -373.633 990.117 -375.009 991.075 -376.553C992.037 -378.114 992.414 -379.864 992.206 -381.803C992.002 -383.759 991.179 -385.948 989.737 -388.371C988.308 -390.772 986.786 -392.524 985.171 -393.625C983.566 -394.733 981.857 -395.235 980.043 -395.129C978.229 -395.024 976.306 -394.367 974.275 -393.159L969.895 -390.552L982.227 -369.827ZM1011.37 -379.197L992.032 -411.697L998.904 -415.785L1006.88 -402.376L1020.83 -410.676L1012.85 -424.086L1019.71 -428.165L1039.05 -395.665L1032.19 -391.586L1024.2 -405.011L1010.25 -396.711L1018.24 -383.286L1011.37 -379.197Z" fill="#252244"/>
<path d="M155.254 203.534L135.916 171.034L157.815 158.004L161.186 163.669L146.158 172.611L150.766 180.355L164.667 172.083L168.038 177.749L154.137 186.02L158.755 193.78L173.846 184.8L177.217 190.465L155.254 203.534ZM194.137 180.397L182.617 187.253L163.278 154.753L174.894 147.841C178.163 145.896 181.364 144.872 184.498 144.769C187.625 144.656 190.544 145.433 193.255 147.1C195.977 148.761 198.342 151.279 200.35 154.654C202.364 158.039 203.456 161.33 203.623 164.525C203.802 167.713 203.088 170.666 201.482 173.384C199.886 176.095 197.438 178.433 194.137 180.397ZM185.985 177.277L190.349 174.68C192.38 173.471 193.874 172.095 194.832 170.551C195.794 168.99 196.171 167.24 195.963 165.301C195.759 163.345 194.936 161.156 193.495 158.733C192.066 156.332 190.543 154.58 188.928 153.479C187.323 152.371 185.614 151.869 183.8 151.975C181.986 152.08 180.064 152.737 178.032 153.945L173.652 156.552L185.985 177.277ZM215.128 167.907L195.79 135.407L202.661 131.319L210.64 144.728L224.589 136.428L216.61 123.018L223.465 118.939L242.804 151.439L235.948 155.518L227.96 142.093L214.011 150.393L221.999 163.818L215.128 167.907ZM258.812 141.914L239.473 109.414L261.372 96.383L264.743 102.048L249.715 110.99L254.323 118.735L268.225 110.463L271.596 116.128L257.694 124.4L262.312 132.16L277.403 123.18L280.774 128.845L258.812 141.914ZM297.695 118.777L286.174 125.632L266.835 93.1324L278.451 86.2204C281.72 84.2752 284.922 83.2513 288.055 83.1488C291.182 83.0356 294.101 83.8127 296.813 85.48C299.534 87.1409 301.899 89.6588 303.907 93.0336C305.922 96.419 307.013 99.7092 307.181 102.904C307.359 106.093 306.645 109.046 305.039 111.764C303.444 114.475 300.995 116.813 297.695 118.777ZM289.542 115.656L293.906 113.059C295.937 111.851 297.432 110.474 298.389 108.93C299.352 107.369 299.728 105.619 299.52 103.681C299.316 101.725 298.493 99.5355 297.052 97.1129C295.623 94.7113 294.101 92.9598 292.485 91.8581C290.881 90.7502 289.171 90.2488 287.357 90.3541C285.543 90.4593 283.621 91.1163 281.59 92.325L277.21 94.9311L289.542 115.656ZM318.685 106.287L299.347 73.7867L306.218 69.6981L314.197 83.1074L328.146 74.8073L320.167 61.398L327.022 57.3187L346.361 89.8185L339.506 93.8977L331.517 80.4725L317.568 88.7726L325.557 102.198L318.685 106.287ZM362.369 80.2932L343.03 47.7934L364.93 34.7626L368.301 40.4278L353.273 49.37L357.881 57.1141L371.782 48.8423L375.153 54.5076L361.252 62.7793L365.869 70.5393L380.961 61.5593L384.332 67.2246L362.369 80.2932ZM401.252 57.1563L389.731 64.0117L370.393 31.5119L382.009 24.5999C385.278 22.6547 388.479 21.6308 391.612 21.5283C394.74 21.4152 397.659 22.1922 400.37 23.8595C403.092 25.5205 405.456 28.0383 407.465 31.4132C409.479 34.7985 410.57 38.0887 410.738 41.2837C410.916 44.4723 410.202 47.4255 408.596 50.1432C407.001 52.8545 404.553 55.1922 401.252 57.1563ZM393.099 54.0356L397.463 51.4389C399.494 50.2302 400.989 48.8539 401.947 47.3098C402.909 45.7489 403.286 43.999 403.078 42.0601C402.874 40.1043 402.051 37.9151 400.609 35.4924C399.18 33.0909 397.658 31.3393 396.043 30.2376C394.438 29.1297 392.729 28.6283 390.915 28.7336C389.101 28.8389 387.178 29.4958 385.147 30.7045L380.767 33.3107L393.099 54.0356ZM422.243 44.666L402.904 12.1663L409.775 8.0776L417.755 21.4869L431.703 13.1868L423.724 -0.222499L430.58 -4.30173L449.918 28.198L443.063 32.2773L435.074 18.8521L421.126 27.1522L429.114 40.5774L422.243 44.666ZM465.926 18.6727L446.588 -13.827L468.487 -26.8579L471.858 -21.1927L456.83 -12.2505L461.438 -4.50637L475.339 -12.7781L478.71 -7.1129L464.809 1.15887L469.426 8.91883L484.518 -0.061147L487.889 5.60409L465.926 18.6727ZM504.809 -4.46415L493.288 2.39123L473.95 -30.1085L485.566 -37.0206C488.835 -38.9658 492.036 -39.9896 495.17 -40.0922C498.297 -40.2053 501.216 -39.4282 503.927 -37.761C506.649 -36.1 509.014 -33.5821 511.022 -30.2073C513.036 -26.8219 514.127 -23.5317 514.295 -20.3368C514.474 -17.1481 513.76 -14.195 512.154 -11.4773C510.558 -8.76594 508.11 -6.42822 504.809 -4.46415ZM496.656 -7.58485L501.02 -10.1816C503.052 -11.3902 504.546 -12.7666 505.504 -14.3107C506.466 -15.8716 506.843 -17.6215 506.635 -19.5604C506.431 -21.5162 505.608 -23.7054 504.166 -26.1281C502.737 -28.5296 501.215 -30.2812 499.6 -31.3828C497.995 -32.4908 496.286 -32.9921 494.472 -32.8869C492.658 -32.7816 490.735 -32.1246 488.704 -30.916L484.324 -28.3098L496.656 -7.58485ZM525.8 -16.9544L506.461 -49.4542L513.333 -53.5429L521.312 -40.1335L535.261 -48.4336L527.282 -61.843L534.137 -65.9222L553.476 -33.4224L546.62 -29.3432L538.632 -42.7684L524.683 -34.4683L532.671 -21.0431L525.8 -16.9544ZM569.483 -42.9477L550.145 -75.4475L572.044 -88.4784L575.415 -82.8131L560.387 -73.8709L564.995 -66.1268L578.897 -74.3986L582.268 -68.7334L568.366 -60.4616L572.984 -52.7016L588.075 -61.6816L591.446 -56.0164L569.483 -42.9477ZM608.367 -66.0846L596.846 -59.2292L577.507 -91.729L589.123 -98.641C592.392 -100.586 595.593 -101.61 598.727 -101.713C601.854 -101.826 604.773 -101.049 607.484 -99.3814C610.206 -97.7205 612.571 -95.2026 614.579 -91.8278C616.594 -88.4424 617.685 -85.1522 617.852 -81.9573C618.031 -78.7686 617.317 -75.8154 615.711 -73.0978C614.115 -70.3864 611.667 -68.0487 608.367 -66.0846ZM600.214 -69.2053L604.578 -71.8021C606.609 -73.0107 608.103 -74.3871 609.061 -75.9311C610.023 -77.4921 610.4 -79.242 610.192 -81.1809C609.988 -83.1367 609.165 -85.3259 607.724 -87.7485C606.295 -90.1501 604.773 -91.9016 603.157 -93.0033C601.553 -94.1112 599.843 -94.6126 598.029 -94.5073C596.215 -94.4021 594.293 -93.7451 592.261 -92.5364L587.882 -89.9303L600.214 -69.2053ZM629.357 -78.5749L610.019 -111.075L616.89 -115.163L624.869 -101.754L638.818 -110.054L630.839 -123.463L637.694 -127.543L657.033 -95.0429L650.177 -90.9637L642.189 -104.389L628.24 -96.0888L636.229 -82.6636L629.357 -78.5749ZM673.041 -104.568L653.702 -137.068L675.601 -150.099L678.972 -144.434L663.944 -135.491L668.553 -127.747L682.454 -136.019L685.825 -130.354L671.924 -122.082L676.541 -114.322L691.632 -123.302L695.003 -117.637L673.041 -104.568ZM711.924 -127.705L700.403 -120.85L681.064 -153.349L692.68 -160.261C695.949 -162.207 699.151 -163.231 702.284 -163.333C705.411 -163.446 708.331 -162.669 711.042 -161.002C713.763 -159.341 716.128 -156.823 718.136 -153.448C720.151 -150.063 721.242 -146.773 721.41 -143.578C721.588 -140.389 720.874 -137.436 719.268 -134.718C717.673 -132.007 715.225 -129.669 711.924 -127.705ZM703.771 -130.826L708.135 -133.423C710.166 -134.631 711.661 -136.008 712.619 -137.552C713.581 -139.113 713.958 -140.862 713.749 -142.801C713.545 -144.757 712.723 -146.946 711.281 -149.369C709.852 -151.771 708.33 -153.522 706.715 -154.624C705.11 -155.732 703.4 -156.233 701.587 -156.128C699.773 -156.023 697.85 -155.366 695.819 -154.157L691.439 -151.551L703.771 -130.826ZM732.915 -140.195L713.576 -172.695L720.447 -176.784L728.426 -163.374L742.375 -171.675L734.396 -185.084L741.252 -189.163L760.59 -156.663L753.735 -152.584L745.746 -166.009L731.797 -157.709L739.786 -144.284L732.915 -140.195ZM776.598 -166.189L757.259 -198.688L779.159 -211.719L782.53 -206.054L767.502 -197.112L772.11 -189.368L786.011 -197.64L789.382 -191.974L775.481 -183.703L780.098 -175.943L795.19 -184.923L798.561 -179.257L776.598 -166.189ZM815.481 -189.326L803.96 -182.47L784.622 -214.97L796.238 -221.882C799.507 -223.827 802.708 -224.851 805.842 -224.954C808.969 -225.067 811.888 -224.29 814.599 -222.622C817.321 -220.961 819.686 -218.444 821.694 -215.069C823.708 -211.683 824.799 -208.393 824.967 -205.198C825.145 -202.01 824.432 -199.056 822.825 -196.339C821.23 -193.627 818.782 -191.29 815.481 -189.326ZM807.328 -192.446L811.692 -195.043C813.723 -196.252 815.218 -197.628 816.176 -199.172C817.138 -200.733 817.515 -202.483 817.307 -204.422C817.103 -206.378 816.28 -208.567 814.838 -210.989C813.409 -213.391 811.887 -215.143 810.272 -216.244C808.667 -217.352 806.958 -217.854 805.144 -217.748C803.33 -217.643 801.407 -216.986 799.376 -215.777L794.996 -213.171L807.328 -192.446ZM836.472 -201.816L817.133 -234.316L824.005 -238.404L831.984 -224.995L845.932 -233.295L837.953 -246.704L844.809 -250.784L864.147 -218.284L857.292 -214.205L849.304 -227.63L835.355 -219.33L843.343 -205.905L836.472 -201.816ZM880.155 -227.809L860.817 -260.309L882.716 -273.34L886.087 -267.675L871.059 -258.732L875.667 -250.988L889.568 -259.26L892.939 -253.595L879.038 -245.323L883.656 -237.563L898.747 -246.543L902.118 -240.878L880.155 -227.809ZM919.038 -250.946L907.517 -244.091L888.179 -276.59L899.795 -283.502C903.064 -285.448 906.265 -286.471 909.399 -286.574C912.526 -286.687 915.445 -285.91 918.156 -284.243C920.878 -282.582 923.243 -280.064 925.251 -276.689C927.265 -273.304 928.357 -270.014 928.524 -266.819C928.703 -263.63 927.989 -260.677 926.383 -257.959C924.787 -255.248 922.339 -252.91 919.038 -250.946ZM910.886 -254.067L915.25 -256.663C917.281 -257.872 918.775 -259.248 919.733 -260.793C920.695 -262.353 921.072 -264.103 920.864 -266.042C920.66 -267.998 919.837 -270.187 918.396 -272.61C916.967 -275.011 915.444 -276.763 913.829 -277.865C912.224 -278.973 910.515 -279.474 908.701 -279.369C906.887 -279.263 904.964 -278.607 902.933 -277.398L898.553 -274.792L910.886 -254.067ZM940.029 -263.436L920.691 -295.936L927.562 -300.025L935.541 -286.615L949.49 -294.916L941.511 -308.325L948.366 -312.404L967.705 -279.904L960.849 -275.825L952.861 -289.25L938.912 -280.95L946.9 -267.525L940.029 -263.436ZM983.713 -289.43L964.374 -321.929L986.273 -334.96L989.644 -329.295L974.616 -320.353L979.224 -312.609L993.126 -320.88L996.497 -315.215L982.595 -306.943L987.213 -299.184L1002.3 -308.163L1005.68 -302.498L983.713 -289.43ZM1022.6 -312.566L1011.07 -305.711L991.736 -338.211L1003.35 -345.123C1006.62 -347.068 1009.82 -348.092 1012.96 -348.195C1016.08 -348.308 1019 -347.531 1021.71 -345.863C1024.44 -344.202 1026.8 -341.684 1028.81 -338.31C1030.82 -334.924 1031.91 -331.634 1032.08 -328.439C1032.26 -325.25 1031.55 -322.297 1029.94 -319.58C1028.34 -316.868 1025.9 -314.531 1022.6 -312.566ZM1014.44 -315.687L1018.81 -318.284C1020.84 -319.493 1022.33 -320.869 1023.29 -322.413C1024.25 -323.974 1024.63 -325.724 1024.42 -327.663C1024.22 -329.619 1023.39 -331.808 1021.95 -334.23C1020.52 -336.632 1019 -338.384 1017.39 -339.485C1015.78 -340.593 1014.07 -341.094 1012.26 -340.989C1010.44 -340.884 1008.52 -340.227 1006.49 -339.018L1002.11 -336.412L1014.44 -315.687ZM1043.59 -325.057L1024.25 -357.557L1031.12 -361.645L1039.1 -348.236L1053.05 -356.536L1045.07 -369.945L1051.92 -374.025L1071.26 -341.525L1064.41 -337.446L1056.42 -350.871L1042.47 -342.571L1050.46 -329.145L1043.59 -325.057Z" fill="#252244"/>
<path d="M187.47 257.674L168.131 225.175L190.031 212.144L193.402 217.809L178.374 226.751L182.982 234.495L196.883 226.223L200.254 231.889L186.353 240.16L190.97 247.92L206.062 238.94L209.433 244.606L187.47 257.674ZM226.353 234.537L214.832 241.393L195.493 208.893L207.11 201.981C210.379 200.036 213.58 199.012 216.713 198.909C219.841 198.796 222.76 199.573 225.471 201.241C228.192 202.902 230.557 205.419 232.566 208.794C234.58 212.18 235.671 215.47 235.839 218.665C236.017 221.853 235.303 224.807 233.697 227.524C232.102 230.236 229.654 232.573 226.353 234.537ZM218.2 231.417L222.564 228.82C224.595 227.611 226.09 226.235 227.048 224.691C228.01 223.13 228.387 221.38 228.178 219.441C227.974 217.485 227.152 215.296 225.71 212.874C224.281 210.472 222.759 208.72 221.144 207.619C219.539 206.511 217.83 206.009 216.016 206.115C214.202 206.22 212.279 206.877 210.248 208.086L205.868 210.692L218.2 231.417ZM247.344 222.047L228.005 189.547L234.876 185.459L242.855 198.868L256.804 190.568L248.825 177.159L255.681 173.079L275.019 205.579L268.164 209.658L260.175 196.233L246.226 204.533L254.215 217.959L247.344 222.047ZM291.027 196.054L271.689 163.554L293.588 150.523L296.959 156.188L281.931 165.131L286.539 172.875L300.44 164.603L303.811 170.268L289.91 178.54L294.527 186.3L309.619 177.32L312.99 182.985L291.027 196.054ZM329.91 172.917L318.389 179.772L299.051 147.273L310.667 140.361C313.936 138.415 317.137 137.392 320.271 137.289C323.398 137.176 326.317 137.953 329.028 139.62C331.75 141.281 334.115 143.799 336.123 147.174C338.137 150.559 339.228 153.849 339.396 157.044C339.574 160.233 338.861 163.186 337.255 165.904C335.659 168.615 333.211 170.953 329.91 172.917ZM321.757 169.796L326.121 167.2C328.153 165.991 329.647 164.615 330.605 163.07C331.567 161.51 331.944 159.76 331.736 157.821C331.532 155.865 330.709 153.676 329.267 151.253C327.838 148.852 326.316 147.1 324.701 145.998C323.096 144.89 321.387 144.389 319.573 144.494C317.759 144.6 315.836 145.257 313.805 146.465L309.425 149.071L321.757 169.796ZM350.901 160.427L331.562 127.927L338.434 123.838L346.413 137.248L360.362 128.948L352.383 115.538L359.238 111.459L378.577 143.959L371.721 148.038L363.733 134.613L349.784 142.913L357.772 156.338L350.901 160.427ZM394.584 134.433L375.246 101.934L397.145 88.9028L400.516 94.568L385.488 103.51L390.096 111.254L403.997 102.983L407.368 108.648L393.467 116.92L398.085 124.68L413.176 115.7L416.547 121.365L394.584 134.433ZM433.467 111.297L421.947 118.152L402.608 85.6521L414.224 78.7401C417.493 76.7949 420.694 75.7711 423.828 75.6685C426.955 75.5554 429.874 76.3324 432.585 77.9997C435.307 79.6607 437.672 82.1786 439.68 85.5534C441.694 88.9388 442.786 92.2289 442.953 95.4239C443.132 98.6126 442.418 101.566 440.812 104.283C439.216 106.995 436.768 109.332 433.467 111.297ZM425.315 108.176L429.679 105.579C431.71 104.37 433.204 102.994 434.162 101.45C435.124 99.8891 435.501 98.1392 435.293 96.2003C435.089 94.2445 434.266 92.0553 432.825 89.6326C431.396 87.2311 429.873 85.4795 428.258 84.3778C426.653 83.2699 424.944 82.7686 423.13 82.8738C421.316 82.9791 419.394 83.636 417.362 84.8447L412.982 87.4509L425.315 108.176ZM454.458 98.8062L435.12 66.3065L441.991 62.2178L449.97 75.6271L463.919 67.327L455.94 53.9177L462.795 49.8385L482.134 82.3382L475.278 86.4175L467.29 72.9923L453.341 81.2924L461.33 94.7176L454.458 98.8062ZM498.142 72.813L478.803 40.3132L500.702 27.2823L504.073 32.9476L489.045 41.8898L493.653 49.6338L507.555 41.3621L510.926 47.0273L497.024 55.2991L501.642 63.059L516.733 54.0791L520.104 59.7443L498.142 72.813ZM537.025 49.6761L525.504 56.5314L506.165 24.0317L517.781 17.1197C521.05 15.1745 524.252 14.1506 527.385 14.048C530.512 13.9349 533.431 14.712 536.143 16.3792C538.864 18.0402 541.229 20.5581 543.237 23.9329C545.252 27.3183 546.343 30.6085 546.511 33.8034C546.689 36.9921 545.975 39.9452 544.369 42.6629C542.774 45.3743 540.325 47.712 537.025 49.6761ZM528.872 46.5554L533.236 43.9586C535.267 42.75 536.762 41.3736 537.719 39.8296C538.682 38.2686 539.059 36.5187 538.85 34.5798C538.646 32.624 537.823 30.4348 536.382 28.0121C534.953 25.6106 533.431 23.859 531.815 22.7574C530.211 21.6494 528.501 21.1481 526.687 21.2534C524.873 21.3586 522.951 22.0156 520.92 23.2242L516.54 25.8304L528.872 46.5554ZM558.015 37.1858L538.677 4.68602L545.548 0.597349L553.527 14.0067L567.476 5.70657L559.497 -7.70275L566.352 -11.782L585.691 20.7178L578.836 24.797L570.847 11.3718L556.898 19.6719L564.887 33.0971L558.015 37.1858ZM601.699 11.1925L582.36 -21.3073L604.26 -34.3381L607.631 -28.6729L592.603 -19.7307L597.211 -11.9866L611.112 -20.2584L614.483 -14.5932L600.582 -6.32138L605.199 1.43857L620.291 -7.5414L623.662 -1.87616L601.699 11.1925ZM640.582 -11.9444L629.061 -5.08903L609.723 -37.5888L621.339 -44.5008C624.608 -46.446 627.809 -47.4699 630.942 -47.5724C634.07 -47.6856 636.989 -46.9085 639.7 -45.2412C642.422 -43.5803 644.786 -41.0624 646.795 -37.6876C648.809 -34.3022 649.9 -31.012 650.068 -27.817C650.246 -24.6284 649.532 -21.6752 647.926 -18.9576C646.331 -16.2462 643.883 -13.9085 640.582 -11.9444ZM632.429 -15.0651L636.793 -17.6618C638.824 -18.8705 640.319 -20.2469 641.277 -21.7909C642.239 -23.3518 642.616 -25.1018 642.408 -27.0407C642.204 -28.9964 641.381 -31.1857 639.939 -33.6083C638.51 -36.0098 636.988 -37.7614 635.373 -38.8631C633.768 -39.971 632.059 -40.4724 630.245 -40.3671C628.431 -40.2619 626.508 -39.6049 624.477 -38.3962L620.097 -35.7901L632.429 -15.0651ZM661.573 -24.4347L642.234 -56.9344L649.105 -61.0231L657.085 -47.6138L671.033 -55.9139L663.054 -69.3232L669.91 -73.4025L689.248 -40.9027L682.393 -36.8235L674.404 -50.2487L660.456 -41.9486L668.444 -28.5234L661.573 -24.4347ZM705.256 -50.428L685.918 -82.9277L707.817 -95.9586L711.188 -90.2934L696.16 -81.3512L700.768 -73.6071L714.669 -81.8789L718.04 -76.2136L704.139 -67.9418L708.756 -60.1819L723.848 -69.1619L727.219 -63.4966L705.256 -50.428ZM744.139 -73.5649L732.618 -66.7095L713.28 -99.2093L724.896 -106.121C728.165 -108.066 731.366 -109.09 734.5 -109.193C737.627 -109.306 740.546 -108.529 743.257 -106.862C745.979 -105.201 748.344 -102.683 750.352 -99.308C752.366 -95.9226 753.457 -92.6325 753.625 -89.4375C753.804 -86.2488 753.09 -83.2957 751.484 -80.578C749.888 -77.8667 747.44 -75.5289 744.139 -73.5649ZM735.986 -76.6856L740.35 -79.2823C742.382 -80.491 743.876 -81.8673 744.834 -83.4114C745.796 -84.9723 746.173 -86.7222 745.965 -88.6611C745.761 -90.6169 744.938 -92.8061 743.496 -95.2288C742.067 -97.6303 740.545 -99.3819 738.93 -100.484C737.325 -101.592 735.616 -102.093 733.802 -101.988C731.988 -101.882 730.065 -101.225 728.034 -100.017L723.654 -97.4105L735.986 -76.6856ZM765.13 -86.0552L745.791 -118.555L752.663 -122.644L760.642 -109.234L774.591 -117.534L766.612 -130.944L773.467 -135.023L792.806 -102.523L785.95 -98.4439L777.962 -111.869L764.013 -103.569L772.001 -90.1438L765.13 -86.0552ZM808.813 -112.048L789.475 -144.548L811.374 -157.579L814.745 -151.914L799.717 -142.972L804.325 -135.228L818.227 -143.499L821.598 -137.834L807.696 -129.562L812.314 -121.802L827.405 -130.782L830.776 -125.117L808.813 -112.048ZM847.697 -135.185L836.176 -128.33L816.837 -160.83L828.453 -167.742C831.722 -169.687 834.923 -170.711 838.057 -170.813C841.184 -170.926 844.103 -170.149 846.814 -168.482C849.536 -166.821 851.901 -164.303 853.909 -160.929C855.924 -157.543 857.015 -154.253 857.182 -151.058C857.361 -147.869 856.647 -144.916 855.041 -142.198C853.445 -139.487 850.997 -137.149 847.697 -135.185ZM839.544 -138.306L843.908 -140.903C845.939 -142.111 847.433 -143.488 848.391 -145.032C849.353 -146.593 849.73 -148.343 849.522 -150.282C849.318 -152.237 848.495 -154.427 847.054 -156.849C845.625 -159.251 844.103 -161.002 842.487 -162.104C840.883 -163.212 839.173 -163.713 837.359 -163.608C835.545 -163.503 833.623 -162.846 831.591 -161.637L827.212 -159.031L839.544 -138.306ZM868.687 -147.676L849.349 -180.175L856.22 -184.264L864.199 -170.855L878.148 -179.155L870.169 -192.564L877.024 -196.643L896.363 -164.144L889.507 -160.064L881.519 -173.49L867.57 -165.189L875.559 -151.764L868.687 -147.676ZM912.371 -173.669L893.032 -206.169L914.931 -219.2L918.302 -213.534L903.275 -204.592L907.883 -196.848L921.784 -205.12L925.155 -199.455L911.254 -191.183L915.871 -183.423L930.962 -192.403L934.333 -186.738L912.371 -173.669ZM951.254 -196.806L939.733 -189.95L920.394 -222.45L932.01 -229.362C935.28 -231.307 938.481 -232.331 941.614 -232.434C944.741 -232.547 947.661 -231.77 950.372 -230.103C953.093 -228.442 955.458 -225.924 957.466 -222.549C959.481 -219.164 960.572 -215.873 960.74 -212.678C960.918 -209.49 960.204 -206.537 958.598 -203.819C957.003 -201.108 954.555 -198.77 951.254 -196.806ZM943.101 -199.927L947.465 -202.523C949.496 -203.732 950.991 -205.108 951.949 -206.652C952.911 -208.213 953.288 -209.963 953.079 -211.902C952.875 -213.858 952.053 -216.047 950.611 -218.47C949.182 -220.871 947.66 -222.623 946.045 -223.724C944.44 -224.832 942.73 -225.334 940.917 -225.229C939.103 -225.123 937.18 -224.466 935.149 -223.258L930.769 -220.651L943.101 -199.927ZM972.245 -209.296L952.906 -241.796L959.777 -245.885L967.756 -232.475L981.705 -240.775L973.726 -254.185L980.582 -258.264L999.92 -225.764L993.065 -221.685L985.076 -235.11L971.127 -226.81L979.116 -213.385L972.245 -209.296ZM1015.93 -235.289L996.589 -267.789L1018.49 -280.82L1021.86 -275.155L1006.83 -266.213L1011.44 -258.468L1025.34 -266.74L1028.71 -261.075L1014.81 -252.803L1019.43 -245.043L1034.52 -254.023L1037.89 -248.358L1015.93 -235.289ZM1054.81 -258.426L1043.29 -251.571L1023.95 -284.071L1035.57 -290.983C1038.84 -292.928 1042.04 -293.952 1045.17 -294.054C1048.3 -294.167 1051.22 -293.39 1053.93 -291.723C1056.65 -290.062 1059.02 -287.544 1061.02 -284.169C1063.04 -280.784 1064.13 -277.494 1064.3 -274.299C1064.48 -271.11 1063.76 -268.157 1062.16 -265.439C1060.56 -262.728 1058.11 -260.39 1054.81 -258.426ZM1046.66 -261.547L1051.02 -264.144C1053.05 -265.352 1054.55 -266.729 1055.51 -268.273C1056.47 -269.834 1056.84 -271.584 1056.64 -273.523C1056.43 -275.478 1055.61 -277.668 1054.17 -280.09C1052.74 -282.492 1051.22 -284.243 1049.6 -285.345C1048 -286.453 1046.29 -286.954 1044.47 -286.849C1042.66 -286.744 1040.74 -286.087 1038.71 -284.878L1034.33 -282.272L1046.66 -261.547ZM1075.8 -270.917L1056.46 -303.416L1063.33 -307.505L1071.31 -294.096L1085.26 -302.396L1077.28 -315.805L1084.14 -319.884L1103.48 -287.385L1096.62 -283.305L1088.63 -296.731L1074.68 -288.43L1082.67 -275.005L1075.8 -270.917Z" fill="#252244"/>
<path d="M219.685 311.815L200.347 279.315L222.246 266.284L225.617 271.949L210.589 280.891L215.197 288.635L229.098 280.364L232.469 286.029L218.568 294.301L223.186 302.061L238.277 293.081L241.648 298.746L219.685 311.815ZM258.568 288.678L247.047 295.533L227.709 263.033L239.325 256.121C242.594 254.176 245.795 253.152 248.929 253.05C252.056 252.937 254.975 253.714 257.686 255.381C260.408 257.042 262.773 259.56 264.781 262.935C266.795 266.32 267.887 269.61 268.054 272.805C268.233 275.994 267.519 278.947 265.913 281.665C264.317 284.376 261.869 286.714 258.568 288.678ZM250.416 285.557L254.78 282.96C256.811 281.752 258.305 280.375 259.263 278.831C260.225 277.27 260.602 275.52 260.394 273.581C260.19 271.626 259.367 269.436 257.926 267.014C256.497 264.612 254.974 262.861 253.359 261.759C251.754 260.651 250.045 260.15 248.231 260.255C246.417 260.36 244.494 261.017 242.463 262.226L238.083 264.832L250.416 285.557ZM279.559 276.187L260.221 243.688L267.092 239.599L275.071 253.008L289.02 244.708L281.041 231.299L287.896 227.22L307.235 259.719L300.379 263.799L292.391 250.373L278.442 258.674L286.43 272.099L279.559 276.187ZM323.243 250.194L303.904 217.694L325.803 204.663L329.174 210.329L314.146 219.271L318.754 227.015L332.656 218.743L336.027 224.408L322.125 232.68L326.743 240.44L341.834 231.46L345.205 237.125L323.243 250.194ZM362.126 227.057L350.605 233.913L331.266 201.413L342.882 194.501C346.151 192.556 349.353 191.532 352.486 191.429C355.613 191.316 358.532 192.093 361.244 193.76C363.965 195.421 366.33 197.939 368.338 201.314C370.353 204.699 371.444 207.99 371.612 211.185C371.79 214.373 371.076 217.326 369.47 220.044C367.875 222.755 365.426 225.093 362.126 227.057ZM353.973 223.937L358.337 221.34C360.368 220.131 361.863 218.755 362.82 217.211C363.782 215.65 364.159 213.9 363.951 211.961C363.747 210.005 362.924 207.816 361.483 205.393C360.054 202.992 358.532 201.24 356.916 200.139C355.312 199.031 353.602 198.529 351.788 198.635C349.974 198.74 348.052 199.397 346.021 200.605L341.641 203.212L353.973 223.937ZM383.116 214.567L363.778 182.067L370.649 177.979L378.628 191.388L392.577 183.088L384.598 169.678L391.453 165.599L410.792 198.099L403.937 202.178L395.948 188.753L381.999 197.053L389.988 210.478L383.116 214.567ZM426.8 188.574L407.461 156.074L429.361 143.043L432.732 148.708L417.704 157.65L422.312 165.395L436.213 157.123L439.584 162.788L425.683 171.06L430.3 178.82L445.392 169.84L448.763 175.505L426.8 188.574ZM465.683 165.437L454.162 172.292L434.823 139.792L446.44 132.88C449.709 130.935 452.91 129.911 456.043 129.809C459.171 129.696 462.09 130.473 464.801 132.14C467.522 133.801 469.887 136.319 471.896 139.694C473.91 143.079 475.001 146.369 475.169 149.564C475.347 152.753 474.633 155.706 473.027 158.424C471.432 161.135 468.984 163.473 465.683 165.437ZM457.53 162.316L461.894 159.719C463.925 158.511 465.42 157.134 466.378 155.59C467.34 154.029 467.717 152.279 467.508 150.34C467.304 148.385 466.482 146.195 465.04 143.773C463.611 141.371 462.089 139.62 460.474 138.518C458.869 137.41 457.16 136.909 455.346 137.014C453.532 137.119 451.609 137.776 449.578 138.985L445.198 141.591L457.53 162.316ZM486.674 152.946L467.335 120.447L474.206 116.358L482.185 129.767L496.134 121.467L488.155 108.058L495.011 103.979L514.349 136.478L507.494 140.558L499.505 127.133L485.556 135.433L493.545 148.858L486.674 152.946ZM530.357 126.953L511.019 94.4534L532.918 81.4225L536.289 87.0878L521.261 96.03L525.869 103.774L539.77 95.5023L543.141 101.168L529.24 109.439L533.857 117.199L548.949 108.219L552.32 113.885L530.357 126.953ZM569.24 103.816L557.719 110.672L538.381 78.1719L549.997 71.2599C553.266 69.3147 556.467 68.2908 559.601 68.1883C562.728 68.0751 565.647 68.8522 568.358 70.5195C571.08 72.1804 573.445 74.6983 575.453 78.0731C577.467 81.4585 578.558 84.7487 578.726 87.9437C578.904 91.1323 578.191 94.0855 576.585 96.8031C574.989 99.5145 572.541 101.852 569.24 103.816ZM561.087 100.696L565.451 98.0989C567.483 96.8902 568.977 95.5138 569.935 93.9698C570.897 92.4089 571.274 90.6589 571.066 88.72C570.862 86.7643 570.039 84.575 568.597 82.1524C567.168 79.7508 565.646 77.9993 564.031 76.8976C562.426 75.7897 560.717 75.2883 558.903 75.3936C557.089 75.4988 555.166 76.1558 553.135 77.3645L548.755 79.9706L561.087 100.696ZM590.231 91.326L570.892 58.8263L577.764 54.7376L585.743 68.1469L599.692 59.8468L591.713 46.4375L598.568 42.3582L617.907 74.858L611.051 78.9372L603.063 65.512L589.114 73.8121L597.102 87.2373L590.231 91.326ZM633.914 65.3327L614.576 32.833L636.475 19.8021L639.846 25.4673L624.818 34.4095L629.426 42.1536L643.327 33.8818L646.698 39.5471L632.797 47.8188L637.415 55.5788L652.506 46.5988L655.877 52.2641L633.914 65.3327ZM672.797 42.1958L661.277 49.0512L641.938 16.5514L653.554 9.63941C656.823 7.69422 660.024 6.67035 663.158 6.56781C666.285 6.45467 669.204 7.23174 671.915 8.899C674.637 10.56 677.002 13.0778 679.01 16.4527C681.025 19.8381 682.116 23.1282 682.283 26.3232C682.462 29.5118 681.748 32.465 680.142 35.1827C678.546 37.894 676.098 40.2318 672.797 42.1958ZM664.645 39.0751L669.009 36.4784C671.04 35.2697 672.534 33.8934 673.492 32.3493C674.454 30.7884 674.831 29.0385 674.623 27.0996C674.419 25.1438 673.596 22.9546 672.155 20.5319C670.726 18.1304 669.204 16.3788 667.588 15.2771C665.983 14.1692 664.274 13.6679 662.46 13.7731C660.646 13.8784 658.724 14.5353 656.692 15.744L652.313 18.3502L664.645 39.0751ZM693.788 29.7055L674.45 -2.79422L681.321 -6.88289L689.3 6.52644L703.249 -1.77367L695.27 -15.183L702.125 -19.2622L721.464 13.2375L714.608 17.3168L706.62 3.89157L692.671 12.1917L700.66 25.6169L693.788 29.7055ZM737.472 3.71225L718.133 -28.7875L740.032 -41.8184L743.403 -36.1531L728.375 -27.2109L732.983 -19.4669L746.885 -27.7386L750.256 -22.0734L736.354 -13.8016L740.972 -6.04167L756.063 -15.0216L759.434 -9.3564L737.472 3.71225ZM776.355 -19.4246L764.834 -12.5693L745.495 -45.069L757.111 -51.9811C760.38 -53.9262 763.582 -54.9501 766.715 -55.0527C769.842 -55.1658 772.762 -54.3887 775.473 -52.7215C778.194 -51.0605 780.559 -48.5426 782.567 -45.1678C784.582 -41.7824 785.673 -38.4922 785.841 -35.2973C786.019 -32.1086 785.305 -29.1555 783.699 -26.4378C782.104 -23.7264 779.656 -21.3887 776.355 -19.4246ZM768.202 -22.5453L772.566 -25.1421C774.597 -26.3507 776.092 -27.7271 777.049 -29.2712C778.012 -30.8321 778.389 -32.582 778.18 -34.5209C777.976 -36.4767 777.154 -38.6659 775.712 -41.0886C774.283 -43.4901 772.761 -45.2417 771.145 -46.3433C769.541 -47.4513 767.831 -47.9526 766.017 -47.8474C764.203 -47.7421 762.281 -47.0851 760.25 -45.8765L755.87 -43.2703L768.202 -22.5453ZM797.346 -31.9149L778.007 -64.4147L784.878 -68.5034L792.857 -55.094L806.806 -63.3941L798.827 -76.8035L805.683 -80.8827L825.021 -48.3829L818.166 -44.3037L810.177 -57.7289L796.228 -49.4288L804.217 -36.0036L797.346 -31.9149ZM841.029 -57.9082L821.69 -90.408L843.59 -103.439L846.961 -97.7736L831.933 -88.8314L836.541 -81.0873L850.442 -89.3591L853.813 -83.6939L839.912 -75.4221L844.529 -67.6621L859.621 -76.6421L862.992 -70.9769L841.029 -57.9082ZM879.912 -81.0451L868.391 -74.1897L849.053 -106.689L860.669 -113.602C863.938 -115.547 867.139 -116.571 870.272 -116.673C873.4 -116.786 876.319 -116.009 879.03 -114.342C881.752 -112.681 884.116 -110.163 886.125 -106.788C888.139 -103.403 889.23 -100.113 889.398 -96.9177C889.576 -93.7291 888.862 -90.7759 887.256 -88.0583C885.661 -85.3469 883.213 -83.0092 879.912 -81.0451ZM871.759 -84.1658L876.123 -86.7625C878.154 -87.9712 879.649 -89.3476 880.607 -90.8916C881.569 -92.4525 881.946 -94.2025 881.738 -96.1414C881.534 -98.0971 880.711 -100.286 879.269 -102.709C877.84 -105.111 876.318 -106.862 874.703 -107.964C873.098 -109.072 871.389 -109.573 869.575 -109.468C867.761 -109.363 865.838 -108.706 863.807 -107.497L859.427 -104.891L871.759 -84.1658ZM900.903 -93.5354L881.564 -126.035L888.435 -130.124L896.415 -116.714L910.363 -125.015L902.384 -138.424L909.24 -142.503L928.578 -110.003L921.723 -105.924L913.734 -119.349L899.786 -111.049L907.774 -97.6241L900.903 -93.5354ZM944.586 -119.529L925.248 -152.028L947.147 -165.059L950.518 -159.394L935.49 -150.452L940.098 -142.708L953.999 -150.98L957.37 -145.314L943.469 -137.043L948.086 -129.283L963.178 -138.263L966.549 -132.597L944.586 -119.529ZM983.469 -142.666L971.948 -135.81L952.61 -168.31L964.226 -175.222C967.495 -177.167 970.696 -178.191 973.83 -178.294C976.957 -178.407 979.876 -177.63 982.587 -175.962C985.309 -174.301 987.674 -171.784 989.682 -168.409C991.696 -165.023 992.787 -161.733 992.955 -158.538C993.134 -155.35 992.42 -152.396 990.814 -149.679C989.218 -146.967 986.77 -144.63 983.469 -142.666ZM975.316 -145.786L979.68 -148.383C981.712 -149.592 983.206 -150.968 984.164 -152.512C985.126 -154.073 985.503 -155.823 985.295 -157.762C985.091 -159.718 984.268 -161.907 982.826 -164.33C981.397 -166.731 979.875 -168.483 978.26 -169.584C976.655 -170.692 974.946 -171.194 973.132 -171.088C971.318 -170.983 969.395 -170.326 967.364 -169.117L962.984 -166.511L975.316 -145.786ZM1004.46 -155.156L985.121 -187.656L991.993 -191.744L999.972 -178.335L1013.92 -186.635L1005.94 -200.044L1012.8 -204.124L1032.14 -171.624L1025.28 -167.545L1017.29 -180.97L1003.34 -172.67L1011.33 -159.245L1004.46 -155.156ZM1048.14 -181.149L1028.8 -213.649L1050.7 -226.68L1054.08 -221.015L1039.05 -212.072L1043.66 -204.328L1057.56 -212.6L1060.93 -206.935L1047.03 -198.663L1051.64 -190.903L1066.74 -199.883L1070.11 -194.218L1048.14 -181.149ZM1087.03 -204.286L1075.51 -197.431L1056.17 -229.93L1067.78 -236.842C1071.05 -238.788 1074.25 -239.812 1077.39 -239.914C1080.51 -240.027 1083.43 -239.25 1086.14 -237.583C1088.87 -235.922 1091.23 -233.404 1093.24 -230.029C1095.25 -226.644 1096.34 -223.354 1096.51 -220.159C1096.69 -216.97 1095.98 -214.017 1094.37 -211.299C1092.78 -208.588 1090.33 -206.25 1087.03 -204.286ZM1078.87 -207.407L1083.24 -210.003C1085.27 -211.212 1086.76 -212.588 1087.72 -214.133C1088.68 -215.693 1089.06 -217.443 1088.85 -219.382C1088.65 -221.338 1087.83 -223.527 1086.38 -225.95C1084.95 -228.351 1083.43 -230.103 1081.82 -231.205C1080.21 -232.313 1078.5 -232.814 1076.69 -232.709C1074.88 -232.603 1072.95 -231.947 1070.92 -230.738L1066.54 -228.132L1078.87 -207.407ZM1108.02 -216.776L1088.68 -249.276L1095.55 -253.365L1103.53 -239.955L1117.48 -248.256L1109.5 -261.665L1116.35 -265.744L1135.69 -233.244L1128.84 -229.165L1120.85 -242.59L1106.9 -234.29L1114.89 -220.865L1108.02 -216.776Z" fill="#252244"/>
<path d="M251.901 365.955L232.562 333.455L254.461 320.424L257.832 326.089L242.805 335.032L247.413 342.776L261.314 334.504L264.685 340.169L250.784 348.441L255.401 356.201L270.492 347.221L273.863 352.886L251.901 365.955ZM290.784 342.818L279.263 349.673L259.924 317.174L271.54 310.262C274.809 308.316 278.011 307.292 281.144 307.19C284.271 307.077 287.191 307.854 289.902 309.521C292.623 311.182 294.988 313.7 296.996 317.075C299.011 320.46 300.102 323.75 300.27 326.945C300.448 330.134 299.734 333.087 298.128 335.805C296.533 338.516 294.085 340.854 290.784 342.818ZM282.631 339.697L286.995 337.1C289.026 335.892 290.521 334.515 291.479 332.971C292.441 331.41 292.818 329.661 292.609 327.722C292.405 325.766 291.583 323.577 290.141 321.154C288.712 318.752 287.19 317.001 285.575 315.899C283.97 314.791 282.26 314.29 280.447 314.395C278.633 314.5 276.71 315.157 274.679 316.366L270.299 318.972L282.631 339.697ZM311.775 330.328L292.436 297.828L299.307 293.739L307.286 307.149L321.235 298.848L313.256 285.439L320.112 281.36L339.45 313.86L332.595 317.939L324.606 304.514L310.657 312.814L318.646 326.239L311.775 330.328ZM355.458 304.334L336.119 271.835L358.019 258.804L361.39 264.469L346.362 273.411L350.97 281.155L364.871 272.883L368.242 278.549L354.341 286.82L358.958 294.58L374.05 285.6L377.421 291.266L355.458 304.334ZM394.341 281.197L382.82 288.053L363.482 255.553L375.098 248.641C378.367 246.696 381.568 245.672 384.702 245.569C387.829 245.456 390.748 246.233 393.459 247.901C396.181 249.562 398.546 252.079 400.554 255.454C402.568 258.84 403.659 262.13 403.827 265.325C404.005 268.513 403.292 271.467 401.685 274.184C400.09 276.896 397.642 279.233 394.341 281.197ZM386.188 278.077L390.552 275.48C392.583 274.271 394.078 272.895 395.036 271.351C395.998 269.79 396.375 268.04 396.167 266.101C395.963 264.145 395.14 261.956 393.698 259.534C392.269 257.132 390.747 255.38 389.132 254.279C387.527 253.171 385.818 252.669 384.004 252.775C382.19 252.88 380.267 253.537 378.236 254.746L373.856 257.352L386.188 278.077ZM415.332 268.707L395.993 236.207L402.865 232.119L410.844 245.528L424.793 237.228L416.813 223.819L423.669 219.739L443.007 252.239L436.152 256.318L428.164 242.893L414.215 251.193L422.203 264.618L415.332 268.707ZM459.015 242.714L439.677 210.214L461.576 197.183L464.947 202.848L449.919 211.791L454.527 219.535L468.428 211.263L471.799 216.928L457.898 225.2L462.516 232.96L477.607 223.98L480.978 229.645L459.015 242.714ZM497.898 219.577L486.377 226.432L467.039 193.933L478.655 187.021C481.924 185.075 485.125 184.052 488.259 183.949C491.386 183.836 494.305 184.613 497.016 186.28C499.738 187.941 502.103 190.459 504.111 193.834C506.125 197.219 507.217 200.509 507.384 203.704C507.563 206.893 506.849 209.846 505.243 212.564C503.647 215.275 501.199 217.613 497.898 219.577ZM489.746 216.456L494.11 213.86C496.141 212.651 497.635 211.275 498.593 209.73C499.555 208.17 499.932 206.42 499.724 204.481C499.52 202.525 498.697 200.336 497.256 197.913C495.827 195.512 494.304 193.76 492.689 192.658C491.084 191.55 489.375 191.049 487.561 191.154C485.747 191.26 483.825 191.916 481.793 193.125L477.413 195.731L489.746 216.456ZM518.889 207.087L499.551 174.587L506.422 170.498L514.401 183.908L528.35 175.607L520.371 162.198L527.226 158.119L546.565 190.619L539.709 194.698L531.721 181.273L517.772 189.573L525.76 202.998L518.889 207.087ZM562.573 181.093L543.234 148.594L565.133 135.563L568.504 141.228L553.476 150.17L558.084 157.914L571.986 149.643L575.357 155.308L561.455 163.58L566.073 171.339L581.164 162.36L584.535 168.025L562.573 181.093ZM601.456 157.957L589.935 164.812L570.596 132.312L582.212 125.4C585.481 123.455 588.683 122.431 591.816 122.328C594.943 122.215 597.862 122.992 600.574 124.66C603.295 126.321 605.66 128.839 607.668 132.213C609.683 135.599 610.774 138.889 610.942 142.084C611.12 145.273 610.406 148.226 608.8 150.943C607.205 153.655 604.756 155.992 601.456 157.957ZM593.303 154.836L597.667 152.239C599.698 151.03 601.193 149.654 602.15 148.11C603.113 146.549 603.489 144.799 603.281 142.86C603.077 140.904 602.254 138.715 600.813 136.293C599.384 133.891 597.862 132.139 596.246 131.038C594.642 129.93 592.932 129.429 591.118 129.534C589.304 129.639 587.382 130.296 585.351 131.505L580.971 134.111L593.303 154.836ZM622.446 145.466L603.108 112.966L609.979 108.878L617.958 122.287L631.907 113.987L623.928 100.578L630.783 96.4985L650.122 128.998L643.267 133.077L635.278 119.652L621.329 127.952L629.318 141.378L622.446 145.466ZM666.13 119.473L646.791 86.9732L668.691 73.9423L672.062 79.6075L657.034 88.5497L661.642 96.2938L675.543 88.0221L678.914 93.6873L665.013 101.959L669.63 109.719L684.722 100.739L688.093 106.404L666.13 119.473ZM705.013 96.336L693.492 103.191L674.153 70.6917L685.77 63.7796C689.039 61.8344 692.24 60.8106 695.373 60.708C698.501 60.5949 701.42 61.372 704.131 63.0392C706.852 64.7002 709.217 67.2181 711.226 70.5929C713.24 73.9783 714.331 77.2684 714.499 80.4634C714.677 83.6521 713.963 86.6052 712.357 89.3229C710.762 92.0343 708.314 94.372 705.013 96.336ZM696.86 93.2153L701.224 90.6186C703.255 89.4099 704.75 88.0336 705.708 86.4895C706.67 84.9286 707.047 83.1787 706.838 81.2398C706.634 79.284 705.812 77.0948 704.37 74.6721C702.941 72.2706 701.419 70.519 699.804 69.4174C698.199 68.3094 696.49 67.8081 694.676 67.9133C692.862 68.0186 690.939 68.6756 688.908 69.8842L684.528 72.4904L696.86 93.2153ZM726.004 83.8458L706.665 51.346L713.536 47.2573L721.515 60.6667L735.464 52.3666L727.485 38.9572L734.341 34.878L753.679 67.3778L746.824 71.457L738.835 58.0318L724.886 66.3319L732.875 79.7571L726.004 83.8458ZM769.687 57.8525L750.349 25.3527L772.248 12.3218L775.619 17.9871L760.591 26.9293L765.199 34.6734L779.1 26.4016L782.471 32.0668L768.57 40.3386L773.187 48.0986L788.279 39.1186L791.65 44.7838L769.687 57.8525ZM808.57 34.7156L797.049 41.571L777.711 9.0712L789.327 2.15917C792.596 0.213977 795.797 -0.809892 798.931 -0.912441C802.058 -1.02557 804.977 -0.248508 807.688 1.41875C810.41 3.07971 812.775 5.5976 814.783 8.97241C816.797 12.3578 817.888 15.648 818.056 18.8429C818.234 22.0316 817.521 24.9848 815.915 27.7024C814.319 30.4138 811.871 32.7515 808.57 34.7156ZM800.417 31.5949L804.781 28.9981C806.813 27.7895 808.307 26.4131 809.265 24.8691C810.227 23.3081 810.604 21.5582 810.396 19.6193C810.192 17.6635 809.369 15.4743 807.927 13.0516C806.498 10.6501 804.976 8.89855 803.361 7.7969C801.756 6.68895 800.047 6.1876 798.233 6.29287C796.419 6.39813 794.496 7.05509 792.465 8.26376L788.085 10.8699L800.417 31.5949ZM829.561 22.2253L810.222 -10.2745L817.094 -14.3631L825.073 -0.953811L839.022 -9.25391L831.043 -22.6632L837.898 -26.7425L857.237 5.75729L850.381 9.83652L842.393 -3.58867L828.444 4.71143L836.432 18.1366L829.561 22.2253ZM873.244 -3.768L853.906 -36.2678L875.805 -49.2986L879.176 -43.6334L864.148 -34.6912L868.756 -26.9471L882.657 -35.2189L886.028 -29.5536L872.127 -21.2819L876.745 -13.5219L891.836 -22.5019L895.207 -16.8366L873.244 -3.768ZM912.128 -26.9049L900.607 -20.0495L881.268 -52.5493L892.884 -59.4613C896.153 -61.4065 899.354 -62.4304 902.488 -62.5329C905.615 -62.646 908.534 -61.869 911.245 -60.2017C913.967 -58.5408 916.332 -56.0229 918.34 -52.6481C920.355 -49.2627 921.446 -45.9725 921.613 -42.7775C921.792 -39.5889 921.078 -36.6357 919.472 -33.918C917.876 -31.2067 915.428 -28.869 912.128 -26.9049ZM903.975 -30.0256L908.339 -32.6223C910.37 -33.831 911.864 -35.2073 912.822 -36.7514C913.784 -38.3123 914.161 -40.0622 913.953 -42.0011C913.749 -43.9569 912.926 -46.1462 911.485 -48.5688C910.056 -50.9703 908.534 -52.7219 906.918 -53.8236C905.313 -54.9315 903.604 -55.4329 901.79 -55.3276C899.976 -55.2223 898.054 -54.5654 896.022 -53.3567L891.643 -50.7505L903.975 -30.0256ZM933.118 -39.3952L913.78 -71.8949L920.651 -75.9836L928.63 -62.5743L942.579 -70.8744L934.6 -84.2837L941.455 -88.3629L960.794 -55.8632L953.938 -51.7839L945.95 -65.2091L932.001 -56.909L939.99 -43.4838L933.118 -39.3952ZM976.802 -65.3885L957.463 -97.8882L979.362 -110.919L982.733 -105.254L967.705 -96.3117L972.313 -88.5676L986.215 -96.8393L989.586 -91.1741L975.684 -82.9023L980.302 -75.1424L995.393 -84.1224L998.764 -78.4571L976.802 -65.3885ZM1015.68 -88.5254L1004.16 -81.67L984.825 -114.17L996.441 -121.082C999.71 -123.027 1002.91 -124.051 1006.05 -124.153C1009.17 -124.267 1012.09 -123.489 1014.8 -121.822C1017.52 -120.161 1019.89 -117.643 1021.9 -114.269C1023.91 -110.883 1025 -107.593 1025.17 -104.398C1025.35 -101.209 1024.64 -98.2562 1023.03 -95.5385C1021.43 -92.8271 1018.99 -90.4894 1015.68 -88.5254ZM1007.53 -91.6461L1011.9 -94.2428C1013.93 -95.4515 1015.42 -96.8278 1016.38 -98.3719C1017.34 -99.9328 1017.72 -101.683 1017.51 -103.622C1017.31 -105.577 1016.48 -107.767 1015.04 -110.189C1013.61 -112.591 1012.09 -114.342 1010.48 -115.444C1008.87 -116.552 1007.16 -117.053 1005.35 -116.948C1003.53 -116.843 1001.61 -116.186 999.58 -114.977L995.2 -112.371L1007.53 -91.6461ZM1036.68 -101.016L1017.34 -133.515L1024.21 -137.604L1032.19 -124.195L1046.14 -132.495L1038.16 -145.904L1045.01 -149.983L1064.35 -117.484L1057.5 -113.404L1049.51 -126.83L1035.56 -118.53L1043.55 -105.104L1036.68 -101.016ZM1080.36 -127.009L1061.02 -159.509L1082.92 -172.54L1086.29 -166.874L1071.26 -157.932L1075.87 -150.188L1089.77 -158.46L1093.14 -152.795L1079.24 -144.523L1083.86 -136.763L1098.95 -145.743L1102.32 -140.078L1080.36 -127.009ZM1119.24 -150.146L1107.72 -143.29L1088.38 -175.79L1100 -182.702C1103.27 -184.647 1106.47 -185.671 1109.6 -185.774C1112.73 -185.887 1115.65 -185.11 1118.36 -183.443C1121.08 -181.782 1123.45 -179.264 1125.45 -175.889C1127.47 -172.504 1128.56 -169.213 1128.73 -166.018C1128.91 -162.83 1128.19 -159.877 1126.59 -157.159C1124.99 -154.448 1122.54 -152.11 1119.24 -150.146ZM1111.09 -153.267L1115.45 -155.863C1117.48 -157.072 1118.98 -158.448 1119.94 -159.992C1120.9 -161.553 1121.28 -163.303 1121.07 -165.242C1120.86 -167.198 1120.04 -169.387 1118.6 -171.81C1117.17 -174.211 1115.65 -175.963 1114.03 -177.065C1112.43 -178.172 1110.72 -178.674 1108.9 -178.569C1107.09 -178.463 1105.17 -177.806 1103.14 -176.598L1098.76 -173.991L1111.09 -153.267ZM1140.23 -162.636L1120.89 -195.136L1127.77 -199.225L1135.74 -185.815L1149.69 -194.115L1141.71 -207.525L1148.57 -211.604L1167.91 -179.104L1161.05 -175.025L1153.06 -188.45L1139.12 -180.15L1147.1 -166.725L1140.23 -162.636Z" fill="#252244"/>
<path d="M284.116 420.095L264.778 387.595L286.677 374.564L290.048 380.23L275.02 389.172L279.628 396.916L293.529 388.644L296.9 394.309L282.999 402.581L287.616 410.341L302.708 401.361L306.079 407.026L284.116 420.095ZM322.999 396.958L311.478 403.814L292.14 371.314L303.756 364.402C307.025 362.457 310.226 361.433 313.36 361.33C316.487 361.217 319.406 361.994 322.117 363.661C324.839 365.322 327.204 367.84 329.212 371.215C331.226 374.6 332.317 377.891 332.485 381.085C332.664 384.274 331.95 387.227 330.344 389.945C328.748 392.656 326.3 394.994 322.999 396.958ZM314.846 393.837L319.21 391.241C321.242 390.032 322.736 388.656 323.694 387.112C324.656 385.551 325.033 383.801 324.825 381.862C324.621 379.906 323.798 377.717 322.356 375.294C320.927 372.893 319.405 371.141 317.79 370.039C316.185 368.932 314.476 368.43 312.662 368.535C310.848 368.641 308.925 369.298 306.894 370.506L302.514 373.112L314.846 393.837ZM343.99 384.468L324.651 351.968L331.523 347.879L339.502 361.289L353.451 352.989L345.472 339.579L352.327 335.5L371.666 368L364.81 372.079L356.822 358.654L342.873 366.954L350.861 380.379L343.99 384.468ZM387.674 358.475L368.335 325.975L390.234 312.944L393.605 318.609L378.577 327.551L383.185 335.295L397.087 327.024L400.458 332.689L386.556 340.961L391.174 348.721L406.265 339.741L409.636 345.406L387.674 358.475ZM426.557 335.338L415.036 342.193L395.697 309.693L407.313 302.781C410.582 300.836 413.784 299.812 416.917 299.71C420.044 299.597 422.963 300.374 425.674 302.041C428.396 303.702 430.761 306.22 432.769 309.595C434.784 312.98 435.875 316.27 436.042 319.465C436.221 322.654 435.507 325.607 433.901 328.325C432.305 331.036 429.857 333.374 426.557 335.338ZM418.404 332.217L422.768 329.62C424.799 328.412 426.293 327.035 427.251 325.491C428.213 323.93 428.59 322.18 428.382 320.241C428.178 318.286 427.355 316.096 425.914 313.674C424.485 311.272 422.963 309.521 421.347 308.419C419.743 307.311 418.033 306.81 416.219 306.915C414.405 307.02 412.483 307.677 410.451 308.886L406.072 311.492L418.404 332.217ZM447.547 322.847L428.209 290.348L435.08 286.259L443.059 299.668L457.008 291.368L449.029 277.959L455.884 273.88L475.223 306.379L468.367 310.459L460.379 297.033L446.43 305.334L454.419 318.759L447.547 322.847ZM491.231 296.854L471.892 264.354L493.791 251.323L497.162 256.989L482.135 265.931L486.743 273.675L500.644 265.403L504.015 271.068L490.114 279.34L494.731 287.1L509.822 278.12L513.194 283.785L491.231 296.854ZM530.114 273.717L518.593 280.573L499.254 248.073L510.871 241.161C514.14 239.216 517.341 238.192 520.474 238.089C523.601 237.976 526.521 238.753 529.232 240.42C531.953 242.081 534.318 244.599 536.326 247.974C538.341 251.359 539.432 254.65 539.6 257.845C539.778 261.033 539.064 263.986 537.458 266.704C535.863 269.415 533.415 271.753 530.114 273.717ZM521.961 270.597L526.325 268C528.356 266.791 529.851 265.415 530.809 263.871C531.771 262.31 532.148 260.56 531.939 258.621C531.735 256.665 530.913 254.476 529.471 252.053C528.042 249.652 526.52 247.9 524.905 246.799C523.3 245.691 521.591 245.189 519.777 245.294C517.963 245.4 516.04 246.057 514.009 247.265L509.629 249.872L521.961 270.597ZM551.105 261.227L531.766 228.727L538.637 224.638L546.616 238.048L560.565 229.748L552.586 216.338L559.442 212.259L578.78 244.759L571.925 248.838L563.936 235.413L549.987 243.713L557.976 257.138L551.105 261.227ZM594.788 235.234L575.449 202.734L597.349 189.703L600.72 195.368L585.692 204.31L590.3 212.055L604.201 203.783L607.572 209.448L593.671 217.72L598.288 225.48L613.38 216.5L616.751 222.165L594.788 235.234ZM633.671 212.097L622.15 218.952L602.812 186.452L614.428 179.54C617.697 177.595 620.898 176.571 624.032 176.469C627.159 176.356 630.078 177.133 632.789 178.8C635.511 180.461 637.876 182.979 639.884 186.354C641.898 189.739 642.989 193.029 643.157 196.224C643.335 199.413 642.622 202.366 641.015 205.084C639.42 207.795 636.972 210.133 633.671 212.097ZM625.518 208.976L629.882 206.379C631.914 205.171 633.408 203.794 634.366 202.25C635.328 200.689 635.705 198.939 635.497 197C635.293 195.045 634.47 192.855 633.028 190.433C631.599 188.031 630.077 186.28 628.462 185.178C626.857 184.07 625.148 183.569 623.334 183.674C621.52 183.779 619.597 184.436 617.566 185.645L613.186 188.251L625.518 208.976ZM654.662 199.606L635.323 167.107L642.195 163.018L650.174 176.427L664.123 168.127L656.143 154.718L662.999 150.639L682.337 183.138L675.482 187.218L667.494 173.792L653.545 182.093L661.533 195.518L654.662 199.606ZM698.345 173.613L679.007 141.113L700.906 128.083L704.277 133.748L689.249 142.69L693.857 150.434L707.758 142.162L711.129 147.828L697.228 156.099L701.846 163.859L716.937 154.879L720.308 160.545L698.345 173.613ZM737.228 150.476L725.708 157.332L706.369 124.832L717.985 117.92C721.254 115.975 724.455 114.951 727.589 114.848C730.716 114.735 733.635 115.512 736.346 117.179C739.068 118.84 741.433 121.358 743.441 124.733C745.455 128.118 746.547 131.409 746.714 134.604C746.893 137.792 746.179 140.745 744.573 143.463C742.977 146.174 740.529 148.512 737.228 150.476ZM729.076 147.356L733.44 144.759C735.471 143.55 736.965 142.174 737.923 140.63C738.885 139.069 739.262 137.319 739.054 135.38C738.85 133.424 738.027 131.235 736.586 128.812C735.157 126.411 733.634 124.659 732.019 123.558C730.414 122.45 728.705 121.948 726.891 122.054C725.077 122.159 723.155 122.816 721.123 124.024L716.743 126.631L729.076 147.356ZM758.219 137.986L738.881 105.486L745.752 101.398L753.731 114.807L767.68 106.507L759.701 93.0975L766.556 89.0182L785.895 121.518L779.039 125.597L771.051 112.172L757.102 120.472L765.09 133.897L758.219 137.986ZM801.903 111.993L782.564 79.4929L804.463 66.4621L807.834 72.1273L792.806 81.0695L797.414 88.8136L811.316 80.5418L814.687 86.2071L800.785 94.4788L805.403 102.239L820.494 93.2588L823.865 98.924L801.903 111.993ZM840.786 88.8558L829.265 95.7112L809.926 63.2114L821.542 56.2994C824.811 54.3542 828.013 53.3303 831.146 53.2278C834.273 53.1147 837.192 53.8917 839.904 55.559C842.625 57.2199 844.99 59.7378 846.998 63.1126C849.013 66.498 850.104 69.7882 850.272 72.9832C850.45 76.1718 849.736 79.125 848.13 81.8426C846.535 84.554 844.086 86.8917 840.786 88.8558ZM832.633 85.7351L836.997 83.1384C839.028 81.9297 840.523 80.5533 841.48 79.0093C842.443 77.4484 842.819 75.6984 842.611 73.7595C842.407 71.8038 841.584 69.6145 840.143 67.1919C838.714 64.7904 837.192 63.0388 835.576 61.9371C833.972 60.8292 832.262 60.3278 830.448 60.4331C828.634 60.5384 826.712 61.1953 824.681 62.404L820.301 65.0102L832.633 85.7351ZM861.776 76.3655L842.438 43.8658L849.309 39.7771L857.288 53.1864L871.237 44.8863L863.258 31.477L870.113 27.3978L889.452 59.8975L882.597 63.9767L874.608 50.5516L860.659 58.8517L868.648 72.2768L861.776 76.3655ZM905.46 50.3722L886.121 17.8725L908.021 4.84159L911.392 10.5068L896.364 19.449L900.972 27.1931L914.873 18.9213L918.244 24.5866L904.343 32.8584L908.96 40.6183L924.052 31.6383L927.423 37.3036L905.46 50.3722ZM944.343 27.2353L932.822 34.0907L913.483 1.59095L925.1 -5.32108C928.369 -7.26627 931.57 -8.29013 934.703 -8.39268C937.831 -8.50581 940.75 -7.72875 943.461 -6.06149C946.183 -4.40053 948.547 -1.88264 950.556 1.49217C952.57 4.87756 953.661 8.16774 953.829 11.3627C954.007 14.5514 953.293 17.5045 951.687 20.2222C950.092 22.9335 947.644 25.2713 944.343 27.2353ZM936.19 24.1146L940.554 21.5179C942.585 20.3092 944.08 18.9329 945.038 17.3888C946 15.8279 946.377 14.078 946.168 12.1391C945.964 10.1833 945.142 7.99407 943.7 5.5714C942.271 3.16989 940.749 1.41831 939.134 0.316654C937.529 -0.791295 935.82 -1.29264 934.006 -1.18737C932.192 -1.08211 930.269 -0.425148 928.238 0.783513L923.858 3.38969L936.19 24.1146ZM965.334 14.7451L945.995 -17.7547L952.866 -21.8434L960.845 -8.43405L974.794 -16.7342L966.815 -30.1435L973.671 -34.2227L993.009 -1.72295L986.154 2.35628L978.165 -11.0689L964.217 -2.76881L972.205 10.6564L965.334 14.7451ZM1009.02 -11.2482L989.679 -43.748L1011.58 -56.7789L1014.95 -51.1136L999.921 -42.1714L1004.53 -34.4273L1018.43 -42.6991L1021.8 -37.0339L1007.9 -28.7621L1012.52 -21.0022L1027.61 -29.9821L1030.98 -24.3169L1009.02 -11.2482ZM1047.9 -34.3851L1036.38 -27.5298L1017.04 -60.0295L1028.66 -66.9415C1031.93 -68.8867 1035.13 -69.9106 1038.26 -70.0131C1041.39 -70.1263 1044.31 -69.3492 1047.02 -67.682C1049.74 -66.021 1052.1 -63.5031 1054.11 -60.1283C1056.13 -56.7429 1057.22 -53.4527 1057.39 -50.2578C1057.56 -47.0691 1056.85 -44.1159 1055.24 -41.3983C1053.65 -38.6869 1051.2 -36.3492 1047.9 -34.3851ZM1039.75 -37.5058L1044.11 -40.1026C1046.14 -41.3112 1047.64 -42.6876 1048.59 -44.2316C1049.56 -45.7926 1049.93 -47.5425 1049.73 -49.4814C1049.52 -51.4372 1048.7 -53.6264 1047.26 -56.0491C1045.83 -58.4506 1044.31 -60.2022 1042.69 -61.3038C1041.09 -62.4118 1039.38 -62.9131 1037.56 -62.8078C1035.75 -62.7026 1033.83 -62.0456 1031.8 -60.837L1027.42 -58.2308L1039.75 -37.5058ZM1068.89 -46.8754L1049.55 -79.3752L1056.42 -83.4638L1064.4 -70.0545L1078.35 -78.3546L1070.37 -91.7639L1077.23 -95.8432L1096.57 -63.3434L1089.71 -59.2642L1081.72 -72.6894L1067.77 -64.3893L1075.76 -50.9641L1068.89 -46.8754ZM1112.57 -72.8687L1093.24 -105.368L1115.14 -118.399L1118.51 -112.734L1103.48 -103.792L1108.09 -96.0478L1121.99 -104.32L1125.36 -98.6543L1111.46 -90.3826L1116.07 -82.6226L1131.17 -91.6026L1134.54 -85.9374L1112.57 -72.8687ZM1151.46 -96.0056L1139.94 -89.1502L1120.6 -121.65L1132.21 -128.562C1135.48 -130.507 1138.68 -131.531 1141.82 -131.634C1144.95 -131.747 1147.86 -130.97 1150.58 -129.302C1153.3 -127.641 1155.66 -125.124 1157.67 -121.749C1159.68 -118.363 1160.78 -115.073 1160.94 -111.878C1161.12 -108.69 1160.41 -105.736 1158.8 -103.019C1157.21 -100.307 1154.76 -97.9697 1151.46 -96.0056ZM1143.3 -99.1263L1147.67 -101.723C1149.7 -102.932 1151.19 -104.308 1152.15 -105.852C1153.11 -107.413 1153.49 -109.163 1153.28 -111.102C1153.08 -113.058 1152.26 -115.247 1150.81 -117.67C1149.39 -120.071 1147.86 -121.823 1146.25 -122.924C1144.64 -124.032 1142.93 -124.534 1141.12 -124.428C1139.31 -124.323 1137.38 -123.666 1135.35 -122.457L1130.97 -119.851L1143.3 -99.1263ZM1172.45 -108.496L1153.11 -140.996L1159.98 -145.084L1167.96 -131.675L1181.91 -139.975L1173.93 -153.384L1180.79 -157.464L1200.12 -124.964L1193.27 -120.885L1185.28 -134.31L1171.33 -126.01L1179.32 -112.585L1172.45 -108.496Z" fill="#252244"/>
</g>
<defs>
<linearGradient id="paint0_linear_1158_52" x1="677" y1="6.50826e-05" x2="9.09011" y2="-26.4594" gradientUnits="userSpaceOnUse">
<stop stop-color="#252244"/>
<stop offset="1" stop-color="#252244" stop-opacity="0.4"/>
</linearGradient>
</defs>
</svg>
