<?xml version="1.0" encoding="UTF-8" standalone="no"?>
<svg
   version="1.1"
   width="600"
   height="600"
   id="svg4940"
   sodipodi:docname="2U.svg"
   xmlns:inkscape="http://www.inkscape.org/namespaces/inkscape"
   xmlns:sodipodi="http://sodipodi.sourceforge.net/DTD/sodipodi-0.dtd"
   xmlns="http://www.w3.org/2000/svg"
   xmlns:svg="http://www.w3.org/2000/svg"
   xmlns:rdf="http://www.w3.org/1999/02/22-rdf-syntax-ns#"
   xmlns:cc="http://creativecommons.org/ns#"
   xmlns:dc="http://purl.org/dc/elements/1.1/">
  <sodipodi:namedview
     id="namedview684"
     pagecolor="#505050"
     bordercolor="#ffffff"
     borderopacity="1"
     inkscape:showpageshadow="0"
     inkscape:pageopacity="0"
     inkscape:pagecheckerboard="1"
     inkscape:deskcolor="#505050"
     showgrid="false" />
  <defs
     id="defs4942" />
  <metadata
     id="metadata4945">
    <rdf:RDF>
      <cc:Work
         rdf:about="">
        <dc:format>image/svg+xml</dc:format>
        <dc:type
           rdf:resource="http://purl.org/dc/dcmitype/StillImage" />
        <dc:title />
      </cc:Work>
    </rdf:RDF>
  </metadata>
  <circle
     cx="300"
     cy="300"
     r="300"
     style="fill:#cbc2bf"
     id="circle677" />
  <g
     transform="translate(-390.57696,9.64424)"
     id="layer1">
    <path
       d="m 902.67096,78.172631 c 54.31201,54.306549 87.906,129.307299 87.906,212.162109 0,165.69768 -134.31602,300.02102 -300.00601,300.02102 -82.836,0 -157.82999,-33.57635 -212.12398,-87.87689"
       inkscape:connector-curvature="0"
       id="path279"
       style="fill:#c1d7e9" />
    <path
       d="m 850.90873,492.40475 c -16.15155,16.43419 -36.04742,24.64826 -59.68194,24.64826 -26.53175,0 -47.57398,-9.08409 -63.14379,-27.2403 -14.71232,-17.30413 -22.05606,-39.34837 -22.05606,-66.16864 0,-28.82434 12.54005,-61.68663 37.62587,-98.60504 20.46016,-30.2823 44.53819,-56.80254 72.22233,-79.58478 -4.03822,18.4562 -6.06018,31.57231 -6.06018,39.36642 0,17.88017 5.62204,35.31635 16.86612,52.3265 13.84207,20.1902 24.3662,35.18437 31.57206,44.97648 11.24375,17.01015 16.86613,33.60033 16.86613,49.73449 0,23.94025 -8.06403,44.12447 -24.21054,60.54661 z m -0.43177,-92.32894 c -4.32607,-9.65408 -9.37175,-16.08014 -15.13771,-19.24822 0.86957,1.72807 1.28994,4.18806 1.28994,7.3561 0,6.06008 -1.72204,14.71817 -5.1782,25.94425 l -5.62808,17.31021 c 0,10.08012 5.03394,15.13212 15.13234,15.13212 10.66168,0 16.00796,-7.06204 16.00796,-21.1922 0,-7.20607 -2.16052,-15.64817 -6.48625,-25.30226 z"
       inkscape:connector-curvature="0"
       id="path283"
       style="fill:#061922" />
  </g>
  <path
     d="m 185.186,72.759 a 246.14583,246.14583 0 0 0 118.15,118.15 246.14583,246.14583 0 0 0 -118.15,118.15 246.14583,246.14583 0 0 0 -118.15,-118.15 246.14583,246.14583 0 0 0 118.15,-118.15 m 0,44.30625 A 147.6875,147.6875 0 0 1 111.34225,190.909 147.6875,147.6875 0 0 1 185.186,264.75275 147.6875,147.6875 0 0 1 259.02975,190.909 147.6875,147.6875 0 0 1 185.186,117.06525"
     fill="#130c0e"
     id="path392"
     style="stroke-width:0.492292" />
</svg>