<svg xmlns="http://www.w3.org/2000/svg" viewBox="0 0 600 600" version="1.1">
	<circle cx="300" cy="300" r="300" fill="#80b092"/>
	<g transform="translate(-302.01,66.786)">
		<path d="m814.1 21c54.3 54.3 87.9 129.3 87.9 212.2 0 165.7-134.3 300-300 300-82.8 0-157.8-33.6-212.1-87.9" fill="#8ebbd1"/>
	</g>
	<path style="#231f20" d="m 277.29232,214.77349 c 0.18431,-19.72206 -6.02108,-39.56701 -18.30897,-55.04975 -5.95961,-6.51258 -10.81333,-13.94674 -17.08015,-20.15214 -13.82387,-13.76244 -34.52897,-14.62258 -51.24049,-23.28555 -0.98305,-8.66295 -4.11645,-17.387336 -2.21182,-26.173187 0.61438,-2.887661 1.47454,-5.89819 -0.12291,-8.662964 -4.3622,-10.07607 -0.61439,-21.012292 -1.41311,-31.518436 -0.55296,-5.468111 -0.18431,-12.226449 -5.40667,-15.605619 -1.22879,11.427737 -5.40666,22.056762 -8.84727,32.870103 -1.59743,8.417205 -1.59743,17.264484 -5.22236,25.19017 2.33469,8.048583 -2.27325,14.868343 -7.18842,20.827973 -10.93621,5.59099 -23.96136,6.94266 -33.48449,15.17553 -6.75832,5.77532 -14.13108,10.81335 -21.68812,15.48274 -5.713871,7.12699 -11.980698,14.0082 -14.561158,22.97837 -10.198945,12.28788 -11.366279,28.81511 -17.141588,43.19192 -0.122901,21.38093 4.239318,44.42072 17.878864,61.56233 9.768872,8.04856 16.588652,18.92335 26.357522,26.97192 9.33881,5.59099 19.35343,10.19894 28.99942,15.23697 6.32827,1.47454 12.84083,2.21182 19.10767,3.93212 5.09947,26.23465 8.54009,53.08369 18.73903,77.90522 3.37917,-10.19894 3.01053,-21.13517 5.89819,-31.457 4.11643,-15.23697 -4.3622,-31.08835 0.43006,-46.07956 7.12699,-6.38972 19.04624,-2.21183 26.97194,-7.74138 15.11408,-9.27736 31.02691,-18.3704 41.96314,-32.56291 4.055,-8.17145 12.65651,-14.31539 12.65651,-24.08426 0.0615,-13.20947 7.74138,-25.62024 4.85373,-38.95261 M 165.28819,295.6278 c -10.93621,-2.6419 -21.13516,-7.86425 -30.28965,-14.25395 -9.89174,-6.57401 -13.51667,-18.86191 -23.28553,-25.55882 -9.09305,-10.87477 -7.12699,-25.74311 -10.87479,-38.6454 1.47454,-8.97017 3.25629,-17.87888 4.17788,-26.97192 4.42363,-7.18841 11.30485,-12.96371 13.20948,-21.62669 6.51258,-9.33879 16.40434,-15.78993 24.39147,-23.89994 5.77529,-6.69689 14.99121,-3.87069 22.6097,-4.11644 -0.73727,7.37274 -1.35166,14.99122 0.49152,22.30252 0.9216,4.48507 2.88765,8.84727 2.21183,13.57811 -1.53599,9.95319 2.21182,19.90639 -0.43008,29.73671 -5.34523,20.5822 0.49151,41.34873 0.98302,62.05383 -0.73726,9.15449 -1.16736,18.43184 -3.25629,27.46342 m 82.88183,-38.9526 c -7.24988,5.16091 -13.39381,11.48918 -19.72207,17.63312 -10.99767,7.6185 -21.81101,15.60563 -34.89761,19.41486 1.16736,-9.33878 2.3347,-18.92334 -0.61439,-28.01638 -7.3113,-20.64365 1.65887,-42.20889 3.1334,-63.03686 -1.35165,-12.41078 -0.0615,-25.62026 -5.71386,-37.048 -0.73728,-8.60153 2.94908,-16.8344 5.46812,-24.94441 8.66295,3.4406 16.77296,8.11001 23.96137,14.06965 8.66297,6.51256 21.99532,10.69045 23.89994,22.85545 0.98304,7.98713 9.70745,12.77942 9.46169,20.95086 -0.55297,19.35342 2.15037,39.62844 -4.91516,58.12171"/>
	<path style="#231f20" d="m 510.64959,381.36089 c 0.18431,-19.72206 -6.02108,-39.56701 -18.30897,-55.04975 -5.95961,-6.51258 -10.81333,-13.94674 -17.08015,-20.15214 -13.82387,-13.76245 -34.52897,-14.62259 -51.24049,-23.28556 -0.98305,-8.66295 -4.11645,-17.38733 -2.21182,-26.17319 0.61438,-2.88766 1.47454,-5.89819 -0.12291,-8.66296 -4.3622,-10.07607 -0.61439,-21.01229 -1.41311,-31.51844 -0.55296,-5.46811 -0.18431,-12.22644 -5.40667,-15.60561 -1.22879,11.42773 -5.40666,22.05676 -8.84727,32.8701 -1.59743,8.4172 -1.59743,17.26448 -5.22236,25.19017 2.33469,8.04858 -2.27325,14.86834 -7.18842,20.82797 -10.93621,5.59099 -23.96136,6.94266 -33.48449,15.17553 -6.75832,5.77532 -14.13108,10.81336 -21.68812,15.48275 -5.71387,7.12699 -11.9807,14.0082 -14.56116,22.97837 -10.19894,12.28788 -11.36628,28.81511 -17.14159,43.19192 -0.1229,21.38093 4.23932,44.42072 17.87887,61.56233 9.76887,8.04856 16.58865,18.92335 26.35752,26.97192 9.33881,5.59099 19.35343,10.19894 28.99942,15.23697 6.32827,1.47454 12.84083,2.21182 19.10767,3.93212 5.09947,26.23465 8.54009,53.08369 18.73903,77.90522 3.37917,-10.19894 3.01053,-21.13517 5.89819,-31.457 4.11643,-15.23697 -4.3622,-31.08835 0.43006,-46.07956 7.12699,-6.38972 19.04624,-2.21183 26.97194,-7.74138 15.11408,-9.27736 31.02691,-18.3704 41.96314,-32.56291 4.055,-8.17145 12.65651,-14.31539 12.65651,-24.08426 0.0615,-13.20947 7.74138,-25.62024 4.85373,-38.95261 M 398.64546,462.2152 c -10.93621,-2.6419 -21.13516,-7.86425 -30.28965,-14.25395 -9.89174,-6.57401 -13.51667,-18.86191 -23.28553,-25.55882 -9.09305,-10.87477 -7.12699,-25.74311 -10.87479,-38.6454 1.47454,-8.97017 3.25629,-17.87888 4.17788,-26.97192 4.42363,-7.18841 11.30485,-12.96371 13.20948,-21.62669 6.51258,-9.33879 16.40434,-15.78993 24.39147,-23.89994 5.77529,-6.69689 14.99121,-3.87069 22.6097,-4.11644 -0.73727,7.37274 -1.35166,14.99122 0.49152,22.30252 0.9216,4.48507 2.88765,8.84727 2.21183,13.57811 -1.53599,9.95319 2.21182,19.90639 -0.43008,29.73671 -5.34523,20.5822 0.49151,41.34873 0.98302,62.05383 -0.73726,9.15449 -1.16736,18.43184 -3.25629,27.46342 m 82.88183,-38.9526 c -7.24988,5.16091 -13.39381,11.48918 -19.72207,17.63312 -10.99767,7.6185 -21.81101,15.60563 -34.89761,19.41486 1.16736,-9.33878 2.3347,-18.92334 -0.61439,-28.01638 -7.3113,-20.64365 1.65887,-42.20889 3.1334,-63.03686 -1.35165,-12.41078 -0.0615,-25.62026 -5.71386,-37.048 -0.73728,-8.60153 2.94908,-16.8344 5.46812,-24.94441 8.66295,3.4406 16.77296,8.11001 23.96137,14.06965 8.66297,6.51256 21.99532,10.69045 23.89994,22.85545 0.98304,7.98713 9.70745,12.77942 9.46169,20.95086 -0.55297,19.35342 2.15037,39.62844 -4.91516,58.12171"/>
</svg>
